<svg xmlns="http://www.w3.org/2000/svg" width="174" height="20"><clipPath id="prefix__a"><rect width="174" height="20" rx="3" fill="#fff"/></clipPath><g clip-path="url(#prefix__a)"><path fill="#555" d="M0 0h61v20H0z"/><path fill="#86c440" d="M61 0h113v20H61z"/></g><text x="315" y="140" transform="scale(.1)" textLength="510" fill="#fff" text-anchor="middle" font-family="Verdana,Geneva,DejaVu Sans,sans-serif" text-rendering="geometricPrecision" font-size="110">collection</text><g data-name="Layer 2"><path aria-hidden="true" fill="#fff" fill-opacity=".3" d="M117.66 11.02h-2.42v3.48h-.71V6.15h2.71a3.13 3.13 0 012.09.65 2.25 2.25 0 01.75 1.81 2.26 2.26 0 01-.47 1.41 2.47 2.47 0 01-1.26.85l2.08 3.53v.07h-.75zm-2.42-.6h2.16a2 2 0 001.43-.5 1.71 1.71 0 00.54-1.31 1.7 1.7 0 00-.57-1.37 2.29 2.29 0 00-1.57-.49h-2zM128.17 10.78a4.88 4.88 0 01-.4 2 3 3 0 01-2.87 1.84 3 3 0 01-2.36-1.05 4.19 4.19 0 01-.9-2.82v-.86a4.81 4.81 0 01.4-2 3.21 3.21 0 014.55-1.36 3.08 3.08 0 011.14 1.32 4.79 4.79 0 01.42 2zm-.71-.91a3.72 3.72 0 00-.68-2.36 2.27 2.27 0 00-1.88-.85 2.24 2.24 0 00-1.85.85 3.69 3.69 0 00-.7 2.4v.87a3.67 3.67 0 00.69 2.35 2.26 2.26 0 001.87.87 2.22 2.22 0 001.87-.86 3.74 3.74 0 00.67-2.38zM129.9 14.5V6.15h2.47a3.19 3.19 0 012 .56 1.94 1.94 0 01.7 1.63 1.9 1.9 0 01-.35 1.13 2 2 0 01-1 .68 2 2 0 011.17.72 2 2 0 01.45 1.28 2.17 2.17 0 01-.72 1.73 2.93 2.93 0 01-2 .62zm.71-4.6h1.93a2.12 2.12 0 001.36-.42 1.4 1.4 0 00.49-1.16 1.42 1.42 0 00-.5-1.19 2.54 2.54 0 00-1.52-.38h-1.76zm0 .59v3.41h2.11a2.09 2.09 0 001.48-.5 1.6 1.6 0 00.53-1.28 1.55 1.55 0 00-.51-1.22 2 2 0 00-1.4-.45zM143.31 10.78a4.88 4.88 0 01-.4 2 3 3 0 01-2.85 1.82 3 3 0 01-2.36-1.05 4.19 4.19 0 01-.9-2.82v-.84a5 5 0 01.4-2 3.21 3.21 0 014.55-1.36 3.08 3.08 0 011.15 1.29 4.63 4.63 0 01.42 2zm-.71-.91a3.72 3.72 0 00-.7-2.36 2.27 2.27 0 00-1.87-.85 2.24 2.24 0 00-1.85.85 3.75 3.75 0 00-.69 2.4v.87a3.67 3.67 0 00.68 2.35 2.26 2.26 0 001.87.87 2.22 2.22 0 001.87-.86 3.74 3.74 0 00.67-2.38zM150.59 6.75h-2.86v7.75h-.7V6.75h-2.86v-.6h6.42zM152.8 14.5h-.7V6.15h.7zM160.98 11.9a3 3 0 01-1 2 3.14 3.14 0 01-2.13.7 2.94 2.94 0 01-1.64-.47 3.06 3.06 0 01-1.1-1.32 4.73 4.73 0 01-.4-1.94V9.81a4.76 4.76 0 01.39-2 3 3 0 012.81-1.79 3 3 0 012.11.72 3 3 0 01.91 2h-.71a2.13 2.13 0 00-2.31-2.13 2.21 2.21 0 00-1.81.85 3.69 3.69 0 00-.68 2.35v1a3.71 3.71 0 00.66 2.31 2.13 2.13 0 001.77.86 2.36 2.36 0 001.67-.53 2.53 2.53 0 00.7-1.59zM167.42 12.45a1.38 1.38 0 00-.52-1.05 5.14 5.14 0 00-1.78-.77 6.38 6.38 0 01-1.9-.79 1.9 1.9 0 01-.85-1.6 1.88 1.88 0 01.79-1.55 3.25 3.25 0 012-.6 3.43 3.43 0 011.54.31 2.43 2.43 0 011 .89 2.38 2.38 0 01.36 1.28h-.71a1.73 1.73 0 00-.58-1.37 2.26 2.26 0 00-1.57-.53 2.52 2.52 0 00-1.53.43 1.33 1.33 0 00-.56 1.12 1.27 1.27 0 00.51 1 4.75 4.75 0 001.63.71 7.32 7.32 0 011.7.63 2.4 2.4 0 01.87.79 2 2 0 01.3 1.09 1.91 1.91 0 01-.79 1.58 3.36 3.36 0 01-2.08.6 4.07 4.07 0 01-1.62-.32 2.5 2.5 0 01-1.12-.88 2.33 2.33 0 01-.38-1.3h.77a1.67 1.67 0 00.66 1.39 2.76 2.76 0 001.75.51 2.55 2.55 0 001.56-.43 1.35 1.35 0 00.55-1.14zM68.05 11.67v2.83h-2V6.15h3.33a3.79 3.79 0 011.69.36 2.65 2.65 0 011.14 1 2.72 2.72 0 01.41 1.48 2.43 2.43 0 01-.88 1.95 3.66 3.66 0 01-2.4.73zm0-1.56h1.32a1.23 1.23 0 00.89-.29 1.09 1.09 0 00.3-.82 1.37 1.37 0 00-.31-.94 1.11 1.11 0 00-.86-.35h-1.34zM76.73 9.78l1.54-3.63h2.17l-2.69 5.35v3h-2v-3l-2.72-5.35h2.16zM87.7 7.71h-2.5v6.79h-2V7.71h-2.48V6.15h7zM95.53 14.5h-2v-3.49h-3v3.49h-2V6.15h2v3.32h3V6.15h2zM103.9 10.5a5 5 0 01-.45 2.16 3.38 3.38 0 01-1.29 1.45 3.81 3.81 0 01-3.79 0 3.31 3.31 0 01-1.29-1.4 4.77 4.77 0 01-.49-2.09v-.46A4.77 4.77 0 0197.05 8a3.26 3.26 0 011.29-1.45 3.57 3.57 0 011.91-.51 3.66 3.66 0 011.89.5 3.48 3.48 0 011.29 1.44 4.7 4.7 0 01.47 2.13zm-2-.35a3.58 3.58 0 00-.41-1.89 1.35 1.35 0 00-1.19-.65c-1 0-1.55.76-1.6 2.28v.61a3.57 3.57 0 00.41 1.88 1.32 1.32 0 001.21.66 1.3 1.3 0 001.08-.64 3.48 3.48 0 00.42-1.87zM111.9 14.5h-2l-3-5.19v5.19h-2V6.15h2l3 5.2v-5.2h2z"/><path fill="#222" d="M117.26 10.62h-2.42v3.48h-.71V5.75h2.71a3.13 3.13 0 012.09.65 2.25 2.25 0 01.75 1.81 2.26 2.26 0 01-.47 1.41 2.47 2.47 0 01-1.26.85l2.08 3.53v.07h-.75zm-2.42-.6H117a2 2 0 001.43-.5 1.71 1.71 0 00.54-1.31 1.7 1.7 0 00-.57-1.37 2.29 2.29 0 00-1.57-.49h-2zM127.77 10.38a4.88 4.88 0 01-.4 2 3 3 0 01-2.87 1.84 3 3 0 01-2.36-1.05 4.19 4.19 0 01-.9-2.82v-.86a4.81 4.81 0 01.4-2 3.21 3.21 0 014.55-1.36 3.08 3.08 0 011.14 1.32 4.79 4.79 0 01.42 2zm-.71-.91a3.72 3.72 0 00-.68-2.36 2.27 2.27 0 00-1.88-.85 2.24 2.24 0 00-1.85.85 3.69 3.69 0 00-.7 2.4v.87a3.67 3.67 0 00.69 2.35 2.26 2.26 0 001.87.87 2.22 2.22 0 001.87-.86 3.74 3.74 0 00.67-2.38zM129.5 14.1V5.75h2.47a3.19 3.19 0 012 .56 1.94 1.94 0 01.7 1.63 1.9 1.9 0 01-.35 1.13 2 2 0 01-1 .68 2 2 0 011.17.72 2 2 0 01.45 1.28 2.17 2.17 0 01-.72 1.73 2.93 2.93 0 01-2 .62zm.71-4.6h1.93a2.12 2.12 0 001.36-.42 1.4 1.4 0 00.49-1.16 1.42 1.42 0 00-.5-1.19 2.54 2.54 0 00-1.52-.38h-1.76zm0 .59v3.41h2.11a2.09 2.09 0 001.48-.5 1.6 1.6 0 00.53-1.28 1.55 1.55 0 00-.51-1.22 2 2 0 00-1.4-.45zM142.91 10.38a4.88 4.88 0 01-.4 2 3 3 0 01-2.85 1.82 3 3 0 01-2.36-1.05 4.19 4.19 0 01-.9-2.82v-.84a5 5 0 01.4-2 3.21 3.21 0 014.55-1.36 3.08 3.08 0 011.15 1.29 4.63 4.63 0 01.42 2zm-.71-.91a3.72 3.72 0 00-.7-2.36 2.27 2.27 0 00-1.87-.85 2.24 2.24 0 00-1.85.85 3.75 3.75 0 00-.69 2.4v.87a3.67 3.67 0 00.68 2.35 2.26 2.26 0 001.87.87 2.22 2.22 0 001.87-.86 3.74 3.74 0 00.67-2.38zM150.19 6.35h-2.86v7.75h-.7V6.35h-2.86v-.6h6.42zM152.4 14.1h-.7V5.75h.7zM160.58 11.5a3 3 0 01-1 2 3.14 3.14 0 01-2.13.7 2.94 2.94 0 01-1.64-.47 3.06 3.06 0 01-1.1-1.32 4.73 4.73 0 01-.4-1.94V9.41a4.76 4.76 0 01.39-2 3 3 0 012.81-1.79 3 3 0 012.11.72 3 3 0 01.91 2h-.71a2.13 2.13 0 00-2.31-2.13 2.21 2.21 0 00-1.81.85 3.69 3.69 0 00-.68 2.35v1a3.71 3.71 0 00.66 2.31 2.13 2.13 0 001.77.86 2.36 2.36 0 001.67-.53 2.53 2.53 0 00.7-1.59zM167.02 12.05a1.38 1.38 0 00-.52-1.05 5.14 5.14 0 00-1.78-.77 6.38 6.38 0 01-1.9-.79 1.9 1.9 0 01-.85-1.6 1.88 1.88 0 01.79-1.55 3.25 3.25 0 012-.6 3.43 3.43 0 011.54.31 2.43 2.43 0 011 .89 2.38 2.38 0 01.36 1.28h-.71a1.73 1.73 0 00-.58-1.37 2.26 2.26 0 00-1.57-.53 2.52 2.52 0 00-1.53.43 1.33 1.33 0 00-.56 1.12 1.27 1.27 0 00.51 1 4.75 4.75 0 001.63.71 7.32 7.32 0 011.7.63 2.4 2.4 0 01.87.79 2 2 0 01.3 1.09 1.91 1.91 0 01-.79 1.58 3.36 3.36 0 01-2.08.6 4.07 4.07 0 01-1.62-.32 2.5 2.5 0 01-1.12-.88 2.33 2.33 0 01-.38-1.3h.77a1.67 1.67 0 00.66 1.39 2.76 2.76 0 001.75.51 2.55 2.55 0 001.56-.43 1.35 1.35 0 00.55-1.14zM67.65 11.27v2.83h-2V5.75h3.33a3.79 3.79 0 011.69.36 2.65 2.65 0 011.14 1 2.72 2.72 0 01.41 1.48 2.43 2.43 0 01-.88 1.95 3.66 3.66 0 01-2.4.73zm0-1.56h1.32a1.23 1.23 0 00.89-.29 1.09 1.09 0 00.3-.82 1.37 1.37 0 00-.31-.94 1.11 1.11 0 00-.86-.35h-1.34zM76.33 9.38l1.54-3.63h2.17l-2.69 5.35v3h-2v-3l-2.72-5.35h2.16zM87.3 7.31h-2.5v6.79h-2V7.31h-2.48V5.75h7zM95.13 14.1h-2v-3.49h-3v3.49h-2V5.75h2v3.32h3V5.75h2zM103.5 10.1a5 5 0 01-.45 2.16 3.38 3.38 0 01-1.29 1.45 3.81 3.81 0 01-3.79 0 3.31 3.31 0 01-1.29-1.4 4.77 4.77 0 01-.49-2.09v-.46a4.77 4.77 0 01.46-2.16 3.26 3.26 0 011.29-1.45 3.57 3.57 0 011.91-.51 3.66 3.66 0 011.89.5 3.48 3.48 0 011.29 1.44 4.7 4.7 0 01.47 2.13zm-2-.35a3.58 3.58 0 00-.41-1.89 1.35 1.35 0 00-1.19-.65c-1 0-1.55.76-1.6 2.28v.61a3.57 3.57 0 00.41 1.88 1.32 1.32 0 001.21.66A1.3 1.3 0 00101 12a3.48 3.48 0 00.42-1.87zM111.5 14.1h-2l-3-5.19v5.19h-2V5.75h2l3 5.2v-5.2h2z"/></g></svg>