<svg xmlns="http://www.w3.org/2000/svg" width="185" height="20"><defs><style></style></defs><clipPath id="prefix__r"><rect width="185" height="20" rx="3" fill="#fff"/></clipPath><g clip-path="url(#prefix__r)"><path fill="#555" d="M0 0h76v20H0z"/><path fill="#86c440" d="M76 0h109v20H76z"/><path fill="url(#prefix__s)" d="M0 0h185v20H0z"/></g><g fill="#fff" text-anchor="middle" font-family="Verdana,Geneva,DejaVu Sans,sans-serif" text-rendering="geometricPrecision" font-size="110"><text x="385" y="140" textLength="630" transform="scale(.1)">powered by</text><text x="1220" y="140" fill="#414042" textLength="830" transform="scale(.1)">robotics toolbox</text></g><g id="prefix__Layer_2" data-name="Layer 2"><g id="prefix__Layer_1-2" data-name="Layer 1"><path d="M177.82 5.94l-3.77-2-2 1-1.88 1 2 4.71" fill="none" stroke="#414042" stroke-linecap="round" stroke-width="1.6"/><path d="M172.17 10.78h3.14l1 1.75h-4.58l-.89 1.75h6.36l.9 1.75h-8.16" stroke-linejoin="round" fill="none" stroke="#414042" stroke-linecap="round" stroke-width="1.6"/><path transform="translate(-14.5)" d="M193.18 8.48a2.09 2.09 0 00.59-1.5 1.79 1.79 0 00-1.61-1.9A1.74 1.74 0 00190.6 7a2.14 2.14 0 00.59 1.47l.7-1.32a.36.36 0 01.65 0z" fill-rule="evenodd" fill="#414042"/></g></g></svg>