<svg xmlns="http://www.w3.org/2000/svg" width="185" height="20" aria-label="powered by robotics toolbox"><clipPath id="prefix__a"><rect width="185" height="20" rx="3" fill="#fff"/></clipPath><g clip-path="url(#prefix__a)"><path fill="#555" d="M0 0h76v20H0z"/><path fill="#86c440" d="M76 0h109v20H76z"/></g><g fill="#fff" text-anchor="middle" font-family="Verdana,Geneva,DejaVu Sans,sans-serif" text-rendering="geometricPrecision" font-size="110"><text x="385" y="140" textLength="630" transform="scale(.1)">powered by</text><text x="1220" y="140" fill="#222" textLength="830" transform="scale(.1)">robotics toolbox</text></g><g fill="#fff"><path fill="none" stroke="#222" stroke-linecap="round" stroke-width="1.6" d="M177.82 5.94l-3.77-2-2 1-1.88 1 2 4.71"/><path fill="none" stroke="#222" stroke-linecap="round" stroke-width="1.6" stroke-linejoin="round" d="M172.17 10.78h3.14l1 1.75h-4.58l-.89 1.75h6.36l.9 1.75h-8.16"/><path fill="#222" d="M178.68 8.48a2.09 2.09 0 00.59-1.5 1.79 1.79 0 00-1.61-1.9A1.74 1.74 0 00176.1 7a2.14 2.14 0 00.59 1.47l.7-1.32a.36.36 0 01.65 0z"/></g></svg>