solid Surface Face_23 facet normal  0.996195 -0.087156 -0.000000  outer loop   vertex   0.025014 -0.004411  0.010160   vertex   0.025014 -0.004411  0.000000   vertex   0.025400  0.000000  0.010160  endloop endfacetendsolidsolid Surface Face_27 facet normal  0.965926 -0.258819 -0.000000  outer loop   vertex   0.025014 -0.004411  0.010160   vertex   0.023868 -0.008687  0.000000   vertex   0.025014 -0.004411  0.000000  endloop endfacetendsolidsolid Surface Face_31 facet normal  0.965926 -0.258819 -0.000000  outer loop   vertex   0.025014 -0.004411  0.010160   vertex   0.023868 -0.008687  0.010160   vertex   0.023868 -0.008687  0.000000  endloop endfacetendsolidsolid Surface Face_35 facet normal  0.906308 -0.422618 -0.000000  outer loop   vertex   0.023868 -0.008687  0.000000   vertex   0.023868 -0.008687  0.010160   vertex   0.021997 -0.012700  0.000000  endloop endfacetendsolidsolid Surface Face_39 facet normal  0.906308 -0.422618 -0.000000  outer loop   vertex   0.021997 -0.012700  0.000000   vertex   0.023868 -0.008687  0.010160   vertex   0.021997 -0.012700  0.010160  endloop endfacetendsolidsolid Surface Face_43 facet normal  0.819152 -0.573577 -0.000000  outer loop   vertex   0.019458 -0.016327  0.000000   vertex   0.021997 -0.012700  0.010160   vertex   0.019458 -0.016327  0.010160  endloop endfacetendsolidsolid Surface Face_47 facet normal  0.707107 -0.707107 -0.000000  outer loop   vertex   0.016327 -0.019458  0.000000   vertex   0.019458 -0.016327  0.010160   vertex   0.016327 -0.019458  0.010160  endloop endfacetendsolidsolid Surface Face_51 facet normal  0.573577 -0.819152 -0.000000  outer loop   vertex   0.012700 -0.021997  0.000000   vertex   0.016327 -0.019458  0.010160   vertex   0.012700 -0.021997  0.010160  endloop endfacetendsolidsolid Surface Face_55 facet normal  0.422618 -0.906308 -0.000000  outer loop   vertex   0.008687 -0.023868  0.000000   vertex   0.012700 -0.021997  0.010160   vertex   0.008687 -0.023868  0.010160  endloop endfacetendsolidsolid Surface Face_59 facet normal  0.258819 -0.965926 -0.000000  outer loop   vertex   0.004411 -0.025014  0.000000   vertex   0.008687 -0.023868  0.010160   vertex   0.004411 -0.025014  0.010160  endloop endfacetendsolidsolid Surface Face_63 facet normal  0.087156 -0.996195 -0.000000  outer loop   vertex  -0.000000 -0.025400  0.000000   vertex   0.004411 -0.025014  0.010160   vertex   0.000000 -0.025400  0.010160  endloop endfacetendsolidsolid Surface Face_67 facet normal -0.087156 -0.996195 -0.000000  outer loop   vertex  -0.004411 -0.025014  0.000000   vertex   0.000000 -0.025400  0.010160   vertex  -0.004411 -0.025014  0.010160  endloop endfacetendsolidsolid Surface Face_71 facet normal -0.258819 -0.965926 -0.000000  outer loop   vertex  -0.008687 -0.023868  0.000000   vertex  -0.004411 -0.025014  0.010160   vertex  -0.008687 -0.023868  0.010160  endloop endfacetendsolidsolid Surface Face_75 facet normal -0.422618 -0.906308 -0.000000  outer loop   vertex  -0.012700 -0.021997  0.000000   vertex  -0.008687 -0.023868  0.010160   vertex  -0.012700 -0.021997  0.010160  endloop endfacetendsolidsolid Surface Face_79 facet normal -0.573577 -0.819152 -0.000000  outer loop   vertex  -0.016327 -0.019458  0.000000   vertex  -0.012700 -0.021997  0.010160   vertex  -0.016327 -0.019458  0.010160  endloop endfacetendsolidsolid Surface Face_83 facet normal -0.707107 -0.707107 -0.000000  outer loop   vertex  -0.019458 -0.016327  0.000000   vertex  -0.016327 -0.019458  0.010160   vertex  -0.019458 -0.016327  0.010160  endloop endfacetendsolidsolid Surface Face_87 facet normal -0.819152 -0.573577 -0.000000  outer loop   vertex  -0.021997 -0.012700  0.000000   vertex  -0.019458 -0.016327  0.010160   vertex  -0.021997 -0.012700  0.010160  endloop endfacetendsolidsolid Surface Face_91 facet normal -0.906308 -0.422618 -0.000000  outer loop   vertex  -0.023868 -0.008687  0.000000   vertex  -0.021997 -0.012700  0.010160   vertex  -0.023868 -0.008687  0.010160  endloop endfacetendsolidsolid Surface Face_95 facet normal -0.965926 -0.258819 -0.000000  outer loop   vertex  -0.025014 -0.004411  0.000000   vertex  -0.023868 -0.008687  0.010160   vertex  -0.025014 -0.004411  0.010160  endloop endfacetendsolidsolid Surface Face_99 facet normal -0.996195 -0.087156 -0.000000  outer loop   vertex  -0.025400  0.000000  0.000000   vertex  -0.025014 -0.004411  0.010160   vertex  -0.025400 -0.000000  0.010160  endloop endfacetendsolidsolid Surface Face_103 facet normal -0.996195  0.087156 -0.000000  outer loop   vertex  -0.025014  0.004411  0.000000   vertex  -0.025400 -0.000000  0.010160   vertex  -0.025014  0.004411  0.010160  endloop endfacetendsolidsolid Surface Face_107 facet normal -0.965926  0.258819 -0.000000  outer loop   vertex  -0.023868  0.008687  0.000000   vertex  -0.025014  0.004411  0.010160   vertex  -0.023868  0.008687  0.010160  endloop endfacetendsolidsolid Surface Face_111 facet normal -0.906308  0.422618 -0.000000  outer loop   vertex  -0.021997  0.012700  0.000000   vertex  -0.023868  0.008687  0.010160   vertex  -0.021997  0.012700  0.010160  endloop endfacetendsolidsolid Surface Face_115 facet normal -0.819152  0.573577 -0.000000  outer loop   vertex  -0.019458  0.016327  0.000000   vertex  -0.021997  0.012700  0.010160   vertex  -0.019458  0.016327  0.010160  endloop endfacetendsolidsolid Surface Face_119 facet normal -0.707107  0.707107 -0.000000  outer loop   vertex  -0.016327  0.019458  0.000000   vertex  -0.019458  0.016327  0.010160   vertex  -0.016327  0.019458  0.010160  endloop endfacetendsolidsolid Surface Face_123 facet normal -0.573577  0.819152 -0.000000  outer loop   vertex  -0.012700  0.021997  0.000000   vertex  -0.016327  0.019458  0.010160   vertex  -0.012700  0.021997  0.010160  endloop endfacetendsolidsolid Surface Face_127 facet normal -0.422618  0.906308 -0.000000  outer loop   vertex  -0.008687  0.023868  0.000000   vertex  -0.012700  0.021997  0.010160   vertex  -0.008687  0.023868  0.010160  endloop endfacetendsolidsolid Surface Face_131 facet normal -0.258819  0.965926 -0.000000  outer loop   vertex  -0.004411  0.025014  0.000000   vertex  -0.008687  0.023868  0.010160   vertex  -0.004411  0.025014  0.010160  endloop endfacetendsolidsolid Surface Face_135 facet normal -0.087156  0.996195 -0.000000  outer loop   vertex   0.000000  0.025400  0.000000   vertex  -0.004411  0.025014  0.010160   vertex  -0.000000  0.025400  0.010160  endloop endfacetendsolidsolid Surface Face_139 facet normal  0.087156  0.996195  0.000000  outer loop   vertex   0.004411  0.025014  0.000000   vertex  -0.000000  0.025400  0.010160   vertex   0.004411  0.025014  0.010160  endloop endfacetendsolidsolid Surface Face_143 facet normal  0.258819  0.965926  0.000000  outer loop   vertex   0.008687  0.023868  0.000000   vertex   0.004411  0.025014  0.010160   vertex   0.008687  0.023868  0.010160  endloop endfacetendsolidsolid Surface Face_147 facet normal  0.422618  0.906308  0.000000  outer loop   vertex   0.012700  0.021997  0.000000   vertex   0.008687  0.023868  0.010160   vertex   0.012700  0.021997  0.010160  endloop endfacetendsolidsolid Surface Face_151 facet normal  0.573577  0.819152  0.000000  outer loop   vertex   0.016327  0.019458  0.000000   vertex   0.012700  0.021997  0.010160   vertex   0.016327  0.019458  0.010160  endloop endfacetendsolidsolid Surface Face_155 facet normal  0.707107  0.707107  0.000000  outer loop   vertex   0.019458  0.016327  0.000000   vertex   0.016327  0.019458  0.010160   vertex   0.019458  0.016327  0.010160  endloop endfacetendsolidsolid Surface Face_159 facet normal  0.819152  0.573577  0.000000  outer loop   vertex   0.021997  0.012700  0.000000   vertex   0.019458  0.016327  0.010160   vertex   0.021997  0.012700  0.010160  endloop endfacetendsolidsolid Surface Face_163 facet normal  0.906308  0.422618  0.000000  outer loop   vertex   0.023868  0.008687  0.000000   vertex   0.021997  0.012700  0.010160   vertex   0.023868  0.008687  0.010160  endloop endfacetendsolidsolid Surface Face_167 facet normal  0.965926  0.258819  0.000000  outer loop   vertex   0.025014  0.004411  0.000000   vertex   0.023868  0.008687  0.010160   vertex   0.025014  0.004411  0.010160  endloop endfacetendsolidsolid Surface Face_171 facet normal  0.996195  0.087156  0.000000  outer loop   vertex   0.025400  0.000000  0.000000   vertex   0.025014  0.004411  0.010160   vertex   0.025400  0.000000  0.010160  endloop endfacetendsolidsolid Surface Face_175 facet normal  0.996195 -0.087156 -0.000000  outer loop   vertex   0.025014 -0.004411  0.000000   vertex   0.025400  0.000000  0.000000   vertex   0.025400  0.000000  0.010160  endloop endfacetendsolidsolid Surface Face_179 facet normal  0.996195  0.087156  0.000000  outer loop   vertex   0.025400  0.000000  0.000000   vertex   0.025014  0.004411  0.000000   vertex   0.025014  0.004411  0.010160  endloop endfacetendsolidsolid Surface Face_183 facet normal  0.965926  0.258819  0.000000  outer loop   vertex   0.025014  0.004411  0.000000   vertex   0.023868  0.008687  0.000000   vertex   0.023868  0.008687  0.010160  endloop endfacetendsolidsolid Surface Face_187 facet normal  0.906308  0.422618  0.000000  outer loop   vertex   0.023868  0.008687  0.000000   vertex   0.021997  0.012700  0.000000   vertex   0.021997  0.012700  0.010160  endloop endfacetendsolidsolid Surface Face_191 facet normal  0.819152  0.573577  0.000000  outer loop   vertex   0.021997  0.012700  0.000000   vertex   0.019458  0.016327  0.000000   vertex   0.019458  0.016327  0.010160  endloop endfacetendsolidsolid Surface Face_195 facet normal  0.707107  0.707107  0.000000  outer loop   vertex   0.019458  0.016327  0.000000   vertex   0.016327  0.019458  0.000000   vertex   0.016327  0.019458  0.010160  endloop endfacetendsolidsolid Surface Face_199 facet normal  0.573577  0.819152  0.000000  outer loop   vertex   0.016327  0.019458  0.000000   vertex   0.012700  0.021997  0.000000   vertex   0.012700  0.021997  0.010160  endloop endfacetendsolidsolid Surface Face_203 facet normal  0.422618  0.906308  0.000000  outer loop   vertex   0.012700  0.021997  0.000000   vertex   0.008687  0.023868  0.000000   vertex   0.008687  0.023868  0.010160  endloop endfacetendsolidsolid Surface Face_207 facet normal  0.258819  0.965926  0.000000  outer loop   vertex   0.008687  0.023868  0.000000   vertex   0.004411  0.025014  0.000000   vertex   0.004411  0.025014  0.010160  endloop endfacetendsolidsolid Surface Face_211 facet normal  0.087156  0.996195  0.000000  outer loop   vertex   0.004411  0.025014  0.000000   vertex   0.000000  0.025400  0.000000   vertex  -0.000000  0.025400  0.010160  endloop endfacetendsolidsolid Surface Face_215 facet normal -0.087156  0.996195 -0.000000  outer loop   vertex   0.000000  0.025400  0.000000   vertex  -0.004411  0.025014  0.000000   vertex  -0.004411  0.025014  0.010160  endloop endfacetendsolidsolid Surface Face_219 facet normal -0.258819  0.965926 -0.000000  outer loop   vertex  -0.004411  0.025014  0.000000   vertex  -0.008687  0.023868  0.000000   vertex  -0.008687  0.023868  0.010160  endloop endfacetendsolidsolid Surface Face_223 facet normal -0.422618  0.906308 -0.000000  outer loop   vertex  -0.008687  0.023868  0.000000   vertex  -0.012700  0.021997  0.000000   vertex  -0.012700  0.021997  0.010160  endloop endfacetendsolidsolid Surface Face_227 facet normal -0.573577  0.819152 -0.000000  outer loop   vertex  -0.012700  0.021997  0.000000   vertex  -0.016327  0.019458  0.000000   vertex  -0.016327  0.019458  0.010160  endloop endfacetendsolidsolid Surface Face_231 facet normal -0.707107  0.707107 -0.000000  outer loop   vertex  -0.016327  0.019458  0.000000   vertex  -0.019458  0.016327  0.000000   vertex  -0.019458  0.016327  0.010160  endloop endfacetendsolidsolid Surface Face_235 facet normal -0.819152  0.573577 -0.000000  outer loop   vertex  -0.019458  0.016327  0.000000   vertex  -0.021997  0.012700  0.000000   vertex  -0.021997  0.012700  0.010160  endloop endfacetendsolidsolid Surface Face_239 facet normal -0.906308  0.422618 -0.000000  outer loop   vertex  -0.021997  0.012700  0.000000   vertex  -0.023868  0.008687  0.000000   vertex  -0.023868  0.008687  0.010160  endloop endfacetendsolidsolid Surface Face_243 facet normal -0.965926  0.258819 -0.000000  outer loop   vertex  -0.023868  0.008687  0.000000   vertex  -0.025014  0.004411  0.000000   vertex  -0.025014  0.004411  0.010160  endloop endfacetendsolidsolid Surface Face_247 facet normal -0.996195  0.087156  0.000000  outer loop   vertex  -0.025014  0.004411  0.000000   vertex  -0.025400  0.000000  0.000000   vertex  -0.025400 -0.000000  0.010160  endloop endfacetendsolidsolid Surface Face_251 facet normal -0.996195 -0.087156 -0.000000  outer loop   vertex  -0.025400  0.000000  0.000000   vertex  -0.025014 -0.004411  0.000000   vertex  -0.025014 -0.004411  0.010160  endloop endfacetendsolidsolid Surface Face_255 facet normal -0.965926 -0.258819 -0.000000  outer loop   vertex  -0.025014 -0.004411  0.000000   vertex  -0.023868 -0.008687  0.000000   vertex  -0.023868 -0.008687  0.010160  endloop endfacetendsolidsolid Surface Face_259 facet normal -0.906308 -0.422618 -0.000000  outer loop   vertex  -0.023868 -0.008687  0.000000   vertex  -0.021997 -0.012700  0.000000   vertex  -0.021997 -0.012700  0.010160  endloop endfacetendsolidsolid Surface Face_263 facet normal -0.819152 -0.573577 -0.000000  outer loop   vertex  -0.021997 -0.012700  0.000000   vertex  -0.019458 -0.016327  0.000000   vertex  -0.019458 -0.016327  0.010160  endloop endfacetendsolidsolid Surface Face_267 facet normal -0.707107 -0.707107 -0.000000  outer loop   vertex  -0.019458 -0.016327  0.000000   vertex  -0.016327 -0.019458  0.000000   vertex  -0.016327 -0.019458  0.010160  endloop endfacetendsolidsolid Surface Face_271 facet normal -0.573577 -0.819152 -0.000000  outer loop   vertex  -0.016327 -0.019458  0.000000   vertex  -0.012700 -0.021997  0.000000   vertex  -0.012700 -0.021997  0.010160  endloop endfacetendsolidsolid Surface Face_275 facet normal -0.422618 -0.906308 -0.000000  outer loop   vertex  -0.012700 -0.021997  0.000000   vertex  -0.008687 -0.023868  0.000000   vertex  -0.008687 -0.023868  0.010160  endloop endfacetendsolidsolid Surface Face_279 facet normal -0.258819 -0.965926 -0.000000  outer loop   vertex  -0.008687 -0.023868  0.000000   vertex  -0.004411 -0.025014  0.000000   vertex  -0.004411 -0.025014  0.010160  endloop endfacetendsolidsolid Surface Face_283 facet normal -0.087156 -0.996195  0.000000  outer loop   vertex  -0.004411 -0.025014  0.000000   vertex  -0.000000 -0.025400  0.000000   vertex   0.000000 -0.025400  0.010160  endloop endfacetendsolidsolid Surface Face_287 facet normal  0.087156 -0.996195 -0.000000  outer loop   vertex  -0.000000 -0.025400  0.000000   vertex   0.004411 -0.025014  0.000000   vertex   0.004411 -0.025014  0.010160  endloop endfacetendsolidsolid Surface Face_291 facet normal  0.258819 -0.965926 -0.000000  outer loop   vertex   0.004411 -0.025014  0.000000   vertex   0.008687 -0.023868  0.000000   vertex   0.008687 -0.023868  0.010160  endloop endfacetendsolidsolid Surface Face_295 facet normal  0.422618 -0.906308 -0.000000  outer loop   vertex   0.008687 -0.023868  0.000000   vertex   0.012700 -0.021997  0.000000   vertex   0.012700 -0.021997  0.010160  endloop endfacetendsolidsolid Surface Face_299 facet normal  0.573577 -0.819152 -0.000000  outer loop   vertex   0.012700 -0.021997  0.000000   vertex   0.016327 -0.019458  0.000000   vertex   0.016327 -0.019458  0.010160  endloop endfacetendsolidsolid Surface Face_303 facet normal  0.707107 -0.707107 -0.000000  outer loop   vertex   0.016327 -0.019458  0.000000   vertex   0.019458 -0.016327  0.000000   vertex   0.019458 -0.016327  0.010160  endloop endfacetendsolidsolid Surface Face_307 facet normal  0.819152 -0.573577 -0.000000  outer loop   vertex   0.019458 -0.016327  0.000000   vertex   0.021997 -0.012700  0.000000   vertex   0.021997 -0.012700  0.010160  endloop endfacetendsolidsolid Surface Face_311 facet normal -0.000000 -0.000000  1.000000  outer loop   vertex   0.004411  0.025014  0.010160   vertex  -0.004411  0.025014  0.010160   vertex   0.008687  0.023868  0.010160  endloop endfacetendsolidsolid Surface Face_315 facet normal -0.000000 -0.000000  1.000000  outer loop   vertex   0.004411  0.025014  0.010160   vertex  -0.000000  0.025400  0.010160   vertex  -0.004411  0.025014  0.010160  endloop endfacetendsolidsolid Surface Face_319 facet normal -0.000000 -0.000000  1.000000  outer loop   vertex   0.008687  0.023868  0.010160   vertex  -0.008687  0.023868  0.010160   vertex   0.012700  0.021997  0.010160  endloop endfacetendsolidsolid Surface Face_323 facet normal -0.000000 -0.000000  1.000000  outer loop   vertex   0.008687  0.023868  0.010160   vertex  -0.004411  0.025014  0.010160   vertex  -0.008687  0.023868  0.010160  endloop endfacetendsolidsolid Surface Face_327 facet normal -0.000000 -0.000000  1.000000  outer loop   vertex   0.012700  0.021997  0.010160   vertex  -0.012700  0.021997  0.010160   vertex   0.016327  0.019458  0.010160  endloop endfacetendsolidsolid Surface Face_331 facet normal -0.000000 -0.000000  1.000000  outer loop   vertex   0.012700  0.021997  0.010160   vertex  -0.008687  0.023868  0.010160   vertex  -0.012700  0.021997  0.010160  endloop endfacetendsolidsolid Surface Face_335 facet normal -0.000000 -0.000000  1.000000  outer loop   vertex   0.016327  0.019458  0.010160   vertex  -0.016327  0.019458  0.010160   vertex   0.019458  0.016327  0.010160  endloop endfacetendsolidsolid Surface Face_339 facet normal -0.000000 -0.000000  1.000000  outer loop   vertex   0.016327  0.019458  0.010160   vertex  -0.012700  0.021997  0.010160   vertex  -0.016327  0.019458  0.010160  endloop endfacetendsolidsolid Surface Face_343 facet normal -0.000000 -0.000000  1.000000  outer loop   vertex  -0.016327  0.019458  0.010160   vertex  -0.019458  0.016327  0.010160   vertex   0.019458  0.016327  0.010160  endloop endfacetendsolidsolid Surface Face_347 facet normal -0.000000 -0.000000  1.000000  outer loop   vertex   0.019458  0.016327  0.010160   vertex  -0.019458  0.016327  0.010160   vertex   0.021997  0.012700  0.010160  endloop endfacetendsolidsolid Surface Face_351 facet normal -0.000000 -0.000000  1.000000  outer loop   vertex   0.021997  0.012700  0.010160   vertex  -0.019458  0.016327  0.010160   vertex  -0.021997  0.012700  0.010160  endloop endfacetendsolidsolid Surface Face_355 facet normal -0.000000 -0.000000  1.000000  outer loop   vertex   0.023868  0.008687  0.010160   vertex  -0.021997  0.012700  0.010160   vertex  -0.023868  0.008687  0.010160  endloop endfacetendsolidsolid Surface Face_359 facet normal -0.000000 -0.000000  1.000000  outer loop   vertex   0.025014  0.004411  0.010160   vertex  -0.023868  0.008687  0.010160   vertex  -0.025014  0.004411  0.010160  endloop endfacetendsolidsolid Surface Face_363 facet normal -0.000000 -0.000000  1.000000  outer loop   vertex   0.025400  0.000000  0.010160   vertex  -0.025014  0.004411  0.010160   vertex  -0.025400 -0.000000  0.010160  endloop endfacetendsolidsolid Surface Face_367 facet normal -0.000000 -0.000000  1.000000  outer loop   vertex   0.025014 -0.004411  0.010160   vertex  -0.025400 -0.000000  0.010160   vertex  -0.025014 -0.004411  0.010160  endloop endfacetendsolidsolid Surface Face_371 facet normal -0.000000 -0.000000  1.000000  outer loop   vertex   0.023868 -0.008687  0.010160   vertex  -0.025014 -0.004411  0.010160   vertex  -0.023868 -0.008687  0.010160  endloop endfacetendsolidsolid Surface Face_375 facet normal -0.000000 -0.000000  1.000000  outer loop   vertex   0.021997 -0.012700  0.010160   vertex  -0.023868 -0.008687  0.010160   vertex  -0.021997 -0.012700  0.010160  endloop endfacetendsolidsolid Surface Face_379 facet normal -0.000000 -0.000000  1.000000  outer loop   vertex   0.019458 -0.016327  0.010160   vertex  -0.021997 -0.012700  0.010160   vertex  -0.019458 -0.016327  0.010160  endloop endfacetendsolidsolid Surface Face_383 facet normal -0.000000 -0.000000  1.000000  outer loop   vertex   0.016327 -0.019458  0.010160   vertex  -0.019458 -0.016327  0.010160   vertex  -0.016327 -0.019458  0.010160  endloop endfacetendsolidsolid Surface Face_387 facet normal -0.000000 -0.000000  1.000000  outer loop   vertex   0.012700 -0.021997  0.010160   vertex  -0.016327 -0.019458  0.010160   vertex  -0.012700 -0.021997  0.010160  endloop endfacetendsolidsolid Surface Face_391 facet normal -0.000000 -0.000000  1.000000  outer loop   vertex   0.008687 -0.023868  0.010160   vertex  -0.012700 -0.021997  0.010160   vertex  -0.008687 -0.023868  0.010160  endloop endfacetendsolidsolid Surface Face_395 facet normal -0.000000 -0.000000  1.000000  outer loop   vertex   0.004411 -0.025014  0.010160   vertex  -0.008687 -0.023868  0.010160   vertex  -0.004411 -0.025014  0.010160  endloop endfacetendsolidsolid Surface Face_399 facet normal -0.000000 -0.000000  1.000000  outer loop   vertex   0.000000 -0.025400  0.010160   vertex   0.004411 -0.025014  0.010160   vertex  -0.004411 -0.025014  0.010160  endloop endfacetendsolidsolid Surface Face_403 facet normal -0.000000 -0.000000  1.000000  outer loop   vertex   0.004411 -0.025014  0.010160   vertex   0.008687 -0.023868  0.010160   vertex  -0.008687 -0.023868  0.010160  endloop endfacetendsolidsolid Surface Face_407 facet normal -0.000000 -0.000000  1.000000  outer loop   vertex   0.008687 -0.023868  0.010160   vertex   0.012700 -0.021997  0.010160   vertex  -0.012700 -0.021997  0.010160  endloop endfacetendsolidsolid Surface Face_411 facet normal -0.000000 -0.000000  1.000000  outer loop   vertex   0.012700 -0.021997  0.010160   vertex   0.016327 -0.019458  0.010160   vertex  -0.016327 -0.019458  0.010160  endloop endfacetendsolidsolid Surface Face_415 facet normal -0.000000 -0.000000  1.000000  outer loop   vertex   0.016327 -0.019458  0.010160   vertex   0.019458 -0.016327  0.010160   vertex  -0.019458 -0.016327  0.010160  endloop endfacetendsolidsolid Surface Face_419 facet normal -0.000000 -0.000000  1.000000  outer loop   vertex   0.019458 -0.016327  0.010160   vertex   0.021997 -0.012700  0.010160   vertex  -0.021997 -0.012700  0.010160  endloop endfacetendsolidsolid Surface Face_423 facet normal -0.000000 -0.000000  1.000000  outer loop   vertex   0.021997 -0.012700  0.010160   vertex   0.023868 -0.008687  0.010160   vertex  -0.023868 -0.008687  0.010160  endloop endfacetendsolidsolid Surface Face_427 facet normal -0.000000 -0.000000  1.000000  outer loop   vertex   0.023868 -0.008687  0.010160   vertex   0.025014 -0.004411  0.010160   vertex  -0.025014 -0.004411  0.010160  endloop endfacetendsolidsolid Surface Face_431 facet normal -0.000000 -0.000000  1.000000  outer loop   vertex   0.025014 -0.004411  0.010160   vertex   0.025400  0.000000  0.010160   vertex  -0.025400 -0.000000  0.010160  endloop endfacetendsolidsolid Surface Face_435 facet normal  0.000000  0.000000  1.000000  outer loop   vertex  -0.025014  0.004411  0.010160   vertex   0.025400  0.000000  0.010160   vertex   0.025014  0.004411  0.010160  endloop endfacetendsolidsolid Surface Face_439 facet normal  0.000000  0.000000  1.000000  outer loop   vertex  -0.023868  0.008687  0.010160   vertex   0.025014  0.004411  0.010160   vertex   0.023868  0.008687  0.010160  endloop endfacetendsolidsolid Surface Face_443 facet normal  0.000000  0.000000  1.000000  outer loop   vertex  -0.021997  0.012700  0.010160   vertex   0.023868  0.008687  0.010160   vertex   0.021997  0.012700  0.010160  endloop endfacetendsolidsolid Surface Face_447 facet normal -0.000000 -0.000000 -1.000000  outer loop   vertex   0.004411 -0.025014  0.000000   vertex  -0.004411 -0.025014  0.000000   vertex   0.008687 -0.023868  0.000000  endloop endfacetendsolidsolid Surface Face_451 facet normal  0.000000 -0.000000 -1.000000  outer loop   vertex   0.004411 -0.025014  0.000000   vertex  -0.000000 -0.025400  0.000000   vertex  -0.004411 -0.025014  0.000000  endloop endfacetendsolidsolid Surface Face_455 facet normal -0.000000 -0.000000 -1.000000  outer loop   vertex   0.008687 -0.023868  0.000000   vertex  -0.008687 -0.023868  0.000000   vertex   0.012700 -0.021997  0.000000  endloop endfacetendsolidsolid Surface Face_459 facet normal  0.000000 -0.000000 -1.000000  outer loop   vertex   0.008687 -0.023868  0.000000   vertex  -0.004411 -0.025014  0.000000   vertex  -0.008687 -0.023868  0.000000  endloop endfacetendsolidsolid Surface Face_463 facet normal -0.000000 -0.000000 -1.000000  outer loop   vertex   0.012700 -0.021997  0.000000   vertex  -0.012700 -0.021997  0.000000   vertex   0.016327 -0.019458  0.000000  endloop endfacetendsolidsolid Surface Face_467 facet normal  0.000000 -0.000000 -1.000000  outer loop   vertex   0.012700 -0.021997  0.000000   vertex  -0.008687 -0.023868  0.000000   vertex  -0.012700 -0.021997  0.000000  endloop endfacetendsolidsolid Surface Face_471 facet normal -0.000000 -0.000000 -1.000000  outer loop   vertex   0.016327 -0.019458  0.000000   vertex  -0.016327 -0.019458  0.000000   vertex   0.019458 -0.016327  0.000000  endloop endfacetendsolidsolid Surface Face_475 facet normal  0.000000 -0.000000 -1.000000  outer loop   vertex   0.016327 -0.019458  0.000000   vertex  -0.012700 -0.021997  0.000000   vertex  -0.016327 -0.019458  0.000000  endloop endfacetendsolidsolid Surface Face_479 facet normal -0.000000 -0.000000 -1.000000  outer loop   vertex  -0.016327 -0.019458  0.000000   vertex  -0.019458 -0.016327  0.000000   vertex   0.019458 -0.016327  0.000000  endloop endfacetendsolidsolid Surface Face_483 facet normal -0.000000 -0.000000 -1.000000  outer loop   vertex   0.019458 -0.016327  0.000000   vertex  -0.019458 -0.016327  0.000000   vertex   0.021997 -0.012700  0.000000  endloop endfacetendsolidsolid Surface Face_487 facet normal  0.000000 -0.000000 -1.000000  outer loop   vertex   0.021997 -0.012700  0.000000   vertex  -0.019458 -0.016327  0.000000   vertex  -0.021997 -0.012700  0.000000  endloop endfacetendsolidsolid Surface Face_491 facet normal  0.000000 -0.000000 -1.000000  outer loop   vertex   0.023868 -0.008687  0.000000   vertex  -0.021997 -0.012700  0.000000   vertex  -0.023868 -0.008687  0.000000  endloop endfacetendsolidsolid Surface Face_495 facet normal  0.000000 -0.000000 -1.000000  outer loop   vertex   0.025014 -0.004411  0.000000   vertex  -0.023868 -0.008687  0.000000   vertex  -0.025014 -0.004411  0.000000  endloop endfacetendsolidsolid Surface Face_499 facet normal -0.000000 -0.000000 -1.000000  outer loop   vertex   0.025400  0.000000  0.000000   vertex  -0.025014 -0.004411  0.000000   vertex  -0.025400  0.000000  0.000000  endloop endfacetendsolidsolid Surface Face_503 facet normal  0.000000 -0.000000 -1.000000  outer loop   vertex   0.025014  0.004411  0.000000   vertex  -0.025400  0.000000  0.000000   vertex  -0.025014  0.004411  0.000000  endloop endfacetendsolidsolid Surface Face_507 facet normal  0.000000 -0.000000 -1.000000  outer loop   vertex   0.023868  0.008687  0.000000   vertex  -0.025014  0.004411  0.000000   vertex  -0.023868  0.008687  0.000000  endloop endfacetendsolidsolid Surface Face_511 facet normal  0.000000 -0.000000 -1.000000  outer loop   vertex   0.021997  0.012700  0.000000   vertex  -0.023868  0.008687  0.000000   vertex  -0.021997  0.012700  0.000000  endloop endfacetendsolidsolid Surface Face_515 facet normal  0.000000 -0.000000 -1.000000  outer loop   vertex   0.019458  0.016327  0.000000   vertex  -0.021997  0.012700  0.000000   vertex  -0.019458  0.016327  0.000000  endloop endfacetendsolidsolid Surface Face_519 facet normal  0.000000 -0.000000 -1.000000  outer loop   vertex   0.016327  0.019458  0.000000   vertex  -0.019458  0.016327  0.000000   vertex  -0.016327  0.019458  0.000000  endloop endfacetendsolidsolid Surface Face_523 facet normal  0.000000 -0.000000 -1.000000  outer loop   vertex   0.012700  0.021997  0.000000   vertex  -0.016327  0.019458  0.000000   vertex  -0.012700  0.021997  0.000000  endloop endfacetendsolidsolid Surface Face_527 facet normal  0.000000 -0.000000 -1.000000  outer loop   vertex   0.008687  0.023868  0.000000   vertex  -0.012700  0.021997  0.000000   vertex  -0.008687  0.023868  0.000000  endloop endfacetendsolidsolid Surface Face_531 facet normal  0.000000 -0.000000 -1.000000  outer loop   vertex   0.004411  0.025014  0.000000   vertex  -0.008687  0.023868  0.000000   vertex  -0.004411  0.025014  0.000000  endloop endfacetendsolidsolid Surface Face_535 facet normal -0.000000 -0.000000 -1.000000  outer loop   vertex   0.000000  0.025400  0.000000   vertex   0.004411  0.025014  0.000000   vertex  -0.004411  0.025014  0.000000  endloop endfacetendsolidsolid Surface Face_539 facet normal -0.000000 -0.000000 -1.000000  outer loop   vertex   0.004411  0.025014  0.000000   vertex   0.008687  0.023868  0.000000   vertex  -0.008687  0.023868  0.000000  endloop endfacetendsolidsolid Surface Face_543 facet normal -0.000000 -0.000000 -1.000000  outer loop   vertex   0.008687  0.023868  0.000000   vertex   0.012700  0.021997  0.000000   vertex  -0.012700  0.021997  0.000000  endloop endfacetendsolidsolid Surface Face_547 facet normal -0.000000 -0.000000 -1.000000  outer loop   vertex   0.012700  0.021997  0.000000   vertex   0.016327  0.019458  0.000000   vertex  -0.016327  0.019458  0.000000  endloop endfacetendsolidsolid Surface Face_551 facet normal -0.000000 -0.000000 -1.000000  outer loop   vertex   0.016327  0.019458  0.000000   vertex   0.019458  0.016327  0.000000   vertex  -0.019458  0.016327  0.000000  endloop endfacetendsolidsolid Surface Face_555 facet normal -0.000000 -0.000000 -1.000000  outer loop   vertex   0.019458  0.016327  0.000000   vertex   0.021997  0.012700  0.000000   vertex  -0.021997  0.012700  0.000000  endloop endfacetendsolidsolid Surface Face_559 facet normal -0.000000 -0.000000 -1.000000  outer loop   vertex   0.021997  0.012700  0.000000   vertex   0.023868  0.008687  0.000000   vertex  -0.023868  0.008687  0.000000  endloop endfacetendsolidsolid Surface Face_563 facet normal -0.000000 -0.000000 -1.000000  outer loop   vertex   0.023868  0.008687  0.000000   vertex   0.025014  0.004411  0.000000   vertex  -0.025014  0.004411  0.000000  endloop endfacetendsolidsolid Surface Face_567 facet normal  0.000000 -0.000000 -1.000000  outer loop   vertex   0.025014  0.004411  0.000000   vertex   0.025400  0.000000  0.000000   vertex  -0.025400  0.000000  0.000000  endloop endfacetendsolidsolid Surface Face_571 facet normal -0.000000 -0.000000 -1.000000  outer loop   vertex   0.021997 -0.012700  0.000000   vertex  -0.021997 -0.012700  0.000000   vertex   0.023868 -0.008687  0.000000  endloop endfacetendsolidsolid Surface Face_575 facet normal -0.000000 -0.000000 -1.000000  outer loop   vertex   0.023868 -0.008687  0.000000   vertex  -0.023868 -0.008687  0.000000   vertex   0.025014 -0.004411  0.000000  endloop endfacetendsolidsolid Surface Face_579 facet normal -0.000000 -0.000000 -1.000000  outer loop   vertex   0.025014 -0.004411  0.000000   vertex  -0.025014 -0.004411  0.000000   vertex   0.025400  0.000000  0.000000  endloop endfacetendsolid