solid Created by stlwrite.m 07-Jan-2012 20:08:50
facet normal -9.2388821E-01 3.8266259E-01 0.0000000E+00
outer loop
vertex 8.8390000E-03 -8.8390000E-03 -6.2000002E-03
vertex 8.8390000E-03 -8.8390000E-03 0.0000000E+00
vertex 1.2500000E-02 -8.8719535E-17 -6.2000002E-03
endloop
endfacet
facet normal -3.8266259E-01 9.2388821E-01 0.0000000E+00
outer loop
vertex 8.8390000E-03 -8.8390000E-03 -6.2000002E-03
vertex 0.0000000E+00 -1.2500000E-02 0.0000000E+00
vertex 8.8390000E-03 -8.8390000E-03 0.0000000E+00
endloop
endfacet
facet normal -3.8266259E-01 9.2388821E-01 0.0000000E+00
outer loop
vertex 8.8390000E-03 -8.8390000E-03 -6.2000002E-03
vertex 0.0000000E+00 -1.2500000E-02 -6.2000002E-03
vertex 0.0000000E+00 -1.2500000E-02 0.0000000E+00
endloop
endfacet
facet normal 3.8266259E-01 9.2388821E-01 0.0000000E+00
outer loop
vertex 0.0000000E+00 -1.2500000E-02 0.0000000E+00
vertex 0.0000000E+00 -1.2500000E-02 -6.2000002E-03
vertex -8.8390000E-03 -8.8390000E-03 0.0000000E+00
endloop
endfacet
facet normal 3.8266259E-01 9.2388821E-01 0.0000000E+00
outer loop
vertex -8.8390000E-03 -8.8390000E-03 0.0000000E+00
vertex 0.0000000E+00 -1.2500000E-02 -6.2000002E-03
vertex -8.8390000E-03 -8.8390000E-03 -6.2000002E-03
endloop
endfacet
facet normal 9.2388821E-01 3.8266259E-01 7.0293994E-17
outer loop
vertex -1.2500000E-02 -8.8327649E-17 0.0000000E+00
vertex -8.8390000E-03 -8.8390000E-03 -6.2000002E-03
vertex -1.2500000E-02 -8.7188728E-17 -6.2000002E-03
endloop
endfacet
facet normal 9.2388821E-01 -3.8266259E-01 0.0000000E+00
outer loop
vertex -8.8390000E-03 8.8390000E-03 0.0000000E+00
vertex -1.2500000E-02 -8.7188728E-17 -6.2000002E-03
vertex -8.8390000E-03 8.8390000E-03 -6.2000002E-03
endloop
endfacet
facet normal 3.8266259E-01 -9.2388821E-01 0.0000000E+00
outer loop
vertex 0.0000000E+00 1.2500000E-02 0.0000000E+00
vertex -8.8390000E-03 8.8390000E-03 -6.2000002E-03
vertex 0.0000000E+00 1.2500000E-02 -6.2000002E-03
endloop
endfacet
facet normal -3.8266259E-01 -9.2388821E-01 -0.0000000E+00
outer loop
vertex 8.8390000E-03 8.8390000E-03 0.0000000E+00
vertex 0.0000000E+00 1.2500000E-02 -6.2000002E-03
vertex 8.8390000E-03 8.8390000E-03 -6.2000002E-03
endloop
endfacet
facet normal -9.2388821E-01 -3.8266259E-01 -7.0293994E-17
outer loop
vertex 1.2500000E-02 -8.9858456E-17 0.0000000E+00
vertex 8.8390000E-03 8.8390000E-03 -6.2000002E-03
vertex 1.2500000E-02 -8.8719535E-17 -6.2000002E-03
endloop
endfacet
facet normal -9.2388821E-01 3.8266259E-01 0.0000000E+00
outer loop
vertex 8.8390000E-03 -8.8390000E-03 0.0000000E+00
vertex 1.2500000E-02 -8.9858456E-17 0.0000000E+00
vertex 1.2500000E-02 -8.8719535E-17 -6.2000002E-03
endloop
endfacet
facet normal 9.2388821E-01 3.8266259E-01 0.0000000E+00
outer loop
vertex -1.2500000E-02 -8.8327649E-17 0.0000000E+00
vertex -8.8390000E-03 -8.8390000E-03 0.0000000E+00
vertex -8.8390000E-03 -8.8390000E-03 -6.2000002E-03
endloop
endfacet
facet normal -9.2388821E-01 -3.8266259E-01 0.0000000E+00
outer loop
vertex 1.2500000E-02 -8.9858456E-17 0.0000000E+00
vertex 8.8390000E-03 8.8390000E-03 0.0000000E+00
vertex 8.8390000E-03 8.8390000E-03 -6.2000002E-03
endloop
endfacet
facet normal -3.8266259E-01 -9.2388821E-01 0.0000000E+00
outer loop
vertex 8.8390000E-03 8.8390000E-03 0.0000000E+00
vertex 0.0000000E+00 1.2500000E-02 0.0000000E+00
vertex 0.0000000E+00 1.2500000E-02 -6.2000002E-03
endloop
endfacet
facet normal 3.8266259E-01 -9.2388821E-01 0.0000000E+00
outer loop
vertex 0.0000000E+00 1.2500000E-02 0.0000000E+00
vertex -8.8390000E-03 8.8390000E-03 0.0000000E+00
vertex -8.8390000E-03 8.8390000E-03 -6.2000002E-03
endloop
endfacet
facet normal 9.2388821E-01 -3.8266259E-01 0.0000000E+00
outer loop
vertex -8.8390000E-03 8.8390000E-03 0.0000000E+00
vertex -1.2500000E-02 -8.8327649E-17 0.0000000E+00
vertex -1.2500000E-02 -8.7188728E-17 -6.2000002E-03
endloop
endfacet
facet normal -9.2380965E-01 3.8285217E-01 0.0000000E+00
outer loop
vertex 2.2120999E-02 -2.1210001E-03 -6.2000002E-03
vertex 2.2120999E-02 -2.1210001E-03 0.0000000E+00
vertex 2.3000000E-02 -8.9362479E-17 -6.2000002E-03
endloop
endfacet
facet normal -3.8285187E-01 9.2380977E-01 0.0000000E+00
outer loop
vertex 2.2120999E-02 -2.1210001E-03 -6.2000002E-03
vertex 2.0000000E-02 -3.0000000E-03 0.0000000E+00
vertex 2.2120999E-02 -2.1210001E-03 0.0000000E+00
endloop
endfacet
facet normal -3.8285187E-01 9.2380977E-01 0.0000000E+00
outer loop
vertex 2.2120999E-02 -2.1210001E-03 -6.2000002E-03
vertex 2.0000000E-02 -3.0000000E-03 -6.2000002E-03
vertex 2.0000000E-02 -3.0000000E-03 0.0000000E+00
endloop
endfacet
facet normal 3.8285187E-01 9.2380977E-01 0.0000000E+00
outer loop
vertex 2.0000000E-02 -3.0000000E-03 0.0000000E+00
vertex 2.0000000E-02 -3.0000000E-03 -6.2000002E-03
vertex 1.7879000E-02 -2.1210001E-03 0.0000000E+00
endloop
endfacet
facet normal 3.8285187E-01 9.2380977E-01 0.0000000E+00
outer loop
vertex 1.7879000E-02 -2.1210001E-03 0.0000000E+00
vertex 2.0000000E-02 -3.0000000E-03 -6.2000002E-03
vertex 1.7879000E-02 -2.1210001E-03 -6.2000002E-03
endloop
endfacet
facet normal 9.2380983E-01 3.8285145E-01 7.0328689E-17
outer loop
vertex 1.7000001E-02 -9.0134007E-17 0.0000000E+00
vertex 1.7879000E-02 -2.1210001E-03 -6.2000002E-03
vertex 1.7000001E-02 -8.8995085E-17 -6.2000002E-03
endloop
endfacet
facet normal 9.2380983E-01 -3.8285145E-01 0.0000000E+00
outer loop
vertex 1.7879000E-02 2.1210001E-03 0.0000000E+00
vertex 1.7000001E-02 -8.8995085E-17 -6.2000002E-03
vertex 1.7879000E-02 2.1210001E-03 -6.2000002E-03
endloop
endfacet
facet normal 3.8285187E-01 -9.2380977E-01 0.0000000E+00
outer loop
vertex 2.0000000E-02 3.0000000E-03 0.0000000E+00
vertex 1.7879000E-02 2.1210001E-03 -6.2000002E-03
vertex 2.0000000E-02 3.0000000E-03 -6.2000002E-03
endloop
endfacet
facet normal -3.8285187E-01 -9.2380977E-01 -0.0000000E+00
outer loop
vertex 2.2120999E-02 2.1210001E-03 0.0000000E+00
vertex 2.0000000E-02 3.0000000E-03 -6.2000002E-03
vertex 2.2120999E-02 2.1210001E-03 -6.2000002E-03
endloop
endfacet
facet normal -9.2380965E-01 -3.8285217E-01 -7.0328821E-17
outer loop
vertex 2.3000000E-02 -9.0501401E-17 0.0000000E+00
vertex 2.2120999E-02 2.1210001E-03 -6.2000002E-03
vertex 2.3000000E-02 -8.9362479E-17 -6.2000002E-03
endloop
endfacet
facet normal -9.2380965E-01 3.8285217E-01 0.0000000E+00
outer loop
vertex 2.2120999E-02 -2.1210001E-03 0.0000000E+00
vertex 2.3000000E-02 -9.0501401E-17 0.0000000E+00
vertex 2.3000000E-02 -8.9362479E-17 -6.2000002E-03
endloop
endfacet
facet normal 9.2380983E-01 3.8285145E-01 0.0000000E+00
outer loop
vertex 1.7000001E-02 -9.0134007E-17 0.0000000E+00
vertex 1.7879000E-02 -2.1210001E-03 0.0000000E+00
vertex 1.7879000E-02 -2.1210001E-03 -6.2000002E-03
endloop
endfacet
facet normal -9.2380965E-01 -3.8285217E-01 0.0000000E+00
outer loop
vertex 2.3000000E-02 -9.0501401E-17 0.0000000E+00
vertex 2.2120999E-02 2.1210001E-03 0.0000000E+00
vertex 2.2120999E-02 2.1210001E-03 -6.2000002E-03
endloop
endfacet
facet normal -3.8285187E-01 -9.2380977E-01 0.0000000E+00
outer loop
vertex 2.2120999E-02 2.1210001E-03 0.0000000E+00
vertex 2.0000000E-02 3.0000000E-03 0.0000000E+00
vertex 2.0000000E-02 3.0000000E-03 -6.2000002E-03
endloop
endfacet
facet normal 3.8285187E-01 -9.2380977E-01 0.0000000E+00
outer loop
vertex 2.0000000E-02 3.0000000E-03 0.0000000E+00
vertex 1.7879000E-02 2.1210001E-03 0.0000000E+00
vertex 1.7879000E-02 2.1210001E-03 -6.2000002E-03
endloop
endfacet
facet normal 9.2380983E-01 -3.8285145E-01 0.0000000E+00
outer loop
vertex 1.7879000E-02 2.1210001E-03 0.0000000E+00
vertex 1.7000001E-02 -9.0134007E-17 0.0000000E+00
vertex 1.7000001E-02 -8.8995085E-17 -6.2000002E-03
endloop
endfacet
facet normal -0.0000000E+00 0.0000000E+00 1.0000000E+00
outer loop
vertex 1.6263001E-02 1.6263001E-02 0.0000000E+00
vertex 1.7142000E-02 1.4142000E-02 0.0000000E+00
vertex 1.7269000E-02 1.7269000E-02 0.0000000E+00
endloop
endfacet
facet normal 0.0000000E+00 -0.0000000E+00 1.0000000E+00
outer loop
vertex 1.4142000E-02 1.7142000E-02 0.0000000E+00
vertex 1.7269000E-02 1.7269000E-02 0.0000000E+00
vertex 0.0000000E+00 2.4422999E-02 0.0000000E+00
endloop
endfacet
facet normal 0.0000000E+00 0.0000000E+00 1.0000000E+00
outer loop
vertex 1.2021000E-02 1.6263001E-02 0.0000000E+00
vertex 0.0000000E+00 2.4422999E-02 0.0000000E+00
vertex 1.1142000E-02 1.4142000E-02 0.0000000E+00
endloop
endfacet
facet normal 0.0000000E+00 -0.0000000E+00 1.0000000E+00
outer loop
vertex 1.2021000E-02 1.6263001E-02 0.0000000E+00
vertex 1.4142000E-02 1.7142000E-02 0.0000000E+00
vertex 0.0000000E+00 2.4422999E-02 0.0000000E+00
endloop
endfacet
facet normal 0.0000000E+00 -0.0000000E+00 1.0000000E+00
outer loop
vertex -1.7142000E-02 1.4142000E-02 0.0000000E+00
vertex -1.6263001E-02 1.6263001E-02 0.0000000E+00
vertex -1.7269000E-02 1.7269000E-02 0.0000000E+00
endloop
endfacet
facet normal 0.0000000E+00 -0.0000000E+00 1.0000000E+00
outer loop
vertex -2.2120999E-02 2.1210001E-03 0.0000000E+00
vertex -1.7269000E-02 1.7269000E-02 0.0000000E+00
vertex -2.4422999E-02 -8.7597580E-17 0.0000000E+00
endloop
endfacet
facet normal 0.0000000E+00 0.0000000E+00 1.0000000E+00
outer loop
vertex -2.3000000E-02 -8.7684712E-17 0.0000000E+00
vertex -2.4422999E-02 -8.7597580E-17 0.0000000E+00
vertex -2.2120999E-02 -2.1210001E-03 0.0000000E+00
endloop
endfacet
facet normal 0.0000000E+00 -0.0000000E+00 1.0000000E+00
outer loop
vertex -2.3000000E-02 -8.7684712E-17 0.0000000E+00
vertex -2.2120999E-02 2.1210001E-03 0.0000000E+00
vertex -2.4422999E-02 -8.7597580E-17 0.0000000E+00
endloop
endfacet
facet normal 0.0000000E+00 0.0000000E+00 1.0000000E+00
outer loop
vertex -2.4422999E-02 -8.7597580E-17 0.0000000E+00
vertex -1.7269000E-02 -1.7269000E-02 0.0000000E+00
vertex -2.2120999E-02 -2.1210001E-03 0.0000000E+00
endloop
endfacet
facet normal 0.0000000E+00 0.0000000E+00 9.9999994E-01
outer loop
vertex -2.2120999E-02 -2.1210001E-03 0.0000000E+00
vertex -1.7269000E-02 -1.7269000E-02 0.0000000E+00
vertex -1.7142000E-02 -1.4142000E-02 0.0000000E+00
endloop
endfacet
facet normal 0.0000000E+00 0.0000000E+00 1.0000000E+00
outer loop
vertex -2.0000000E-02 -3.0000000E-03 0.0000000E+00
vertex -1.7142000E-02 -1.4142000E-02 0.0000000E+00
vertex -1.6263001E-02 -1.2021000E-02 0.0000000E+00
endloop
endfacet
facet normal 0.0000000E+00 0.0000000E+00 1.0000000E+00
outer loop
vertex -1.7879000E-02 -2.1210001E-03 0.0000000E+00
vertex -1.6263001E-02 -1.2021000E-02 0.0000000E+00
vertex -1.4142000E-02 -1.1142000E-02 0.0000000E+00
endloop
endfacet
facet normal 0.0000000E+00 0.0000000E+00 9.9999994E-01
outer loop
vertex -1.2500000E-02 -8.8327649E-17 0.0000000E+00
vertex -1.4142000E-02 -1.1142000E-02 0.0000000E+00
vertex -8.8390000E-03 -8.8390000E-03 0.0000000E+00
endloop
endfacet
facet normal 0.0000000E+00 0.0000000E+00 9.9999994E-01
outer loop
vertex -1.2500000E-02 -8.8327649E-17 0.0000000E+00
vertex -1.7879000E-02 -2.1210001E-03 0.0000000E+00
vertex -1.4142000E-02 -1.1142000E-02 0.0000000E+00
endloop
endfacet
facet normal 0.0000000E+00 0.0000000E+00 1.0000000E+00
outer loop
vertex -1.2500000E-02 -8.8327649E-17 0.0000000E+00
vertex -1.7000001E-02 -8.8052106E-17 0.0000000E+00
vertex -1.7879000E-02 -2.1210001E-03 0.0000000E+00
endloop
endfacet
facet normal 0.0000000E+00 0.0000000E+00 1.0000000E+00
outer loop
vertex -1.2500000E-02 -8.8327649E-17 0.0000000E+00
vertex -1.7879000E-02 2.1210001E-03 0.0000000E+00
vertex -1.7000001E-02 -8.8052106E-17 0.0000000E+00
endloop
endfacet
facet normal 0.0000000E+00 0.0000000E+00 9.9999994E-01
outer loop
vertex -1.2500000E-02 -8.8327649E-17 0.0000000E+00
vertex -1.4142000E-02 1.1142000E-02 0.0000000E+00
vertex -1.7879000E-02 2.1210001E-03 0.0000000E+00
endloop
endfacet
facet normal 0.0000000E+00 -0.0000000E+00 9.9999994E-01
outer loop
vertex -1.2500000E-02 -8.8327649E-17 0.0000000E+00
vertex -8.8390000E-03 8.8390000E-03 0.0000000E+00
vertex -1.4142000E-02 1.1142000E-02 0.0000000E+00
endloop
endfacet
facet normal -0.0000000E+00 0.0000000E+00 1.0000000E+00
outer loop
vertex -1.4142000E-02 1.1142000E-02 0.0000000E+00
vertex -8.8390000E-03 8.8390000E-03 0.0000000E+00
vertex -1.2021000E-02 1.2021000E-02 0.0000000E+00
endloop
endfacet
facet normal -0.0000000E+00 0.0000000E+00 1.0000000E+00
outer loop
vertex -1.2021000E-02 1.2021000E-02 0.0000000E+00
vertex -8.8390000E-03 8.8390000E-03 0.0000000E+00
vertex -1.1142000E-02 1.4142000E-02 0.0000000E+00
endloop
endfacet
facet normal 0.0000000E+00 0.0000000E+00 9.9999994E-01
outer loop
vertex -1.1142000E-02 1.4142000E-02 0.0000000E+00
vertex -8.8390000E-03 8.8390000E-03 0.0000000E+00
vertex 0.0000000E+00 1.2500000E-02 0.0000000E+00
endloop
endfacet
facet normal -0.0000000E+00 0.0000000E+00 9.9999994E-01
outer loop
vertex -1.2021000E-02 1.6263001E-02 0.0000000E+00
vertex 0.0000000E+00 1.2500000E-02 0.0000000E+00
vertex 0.0000000E+00 2.4422999E-02 0.0000000E+00
endloop
endfacet
facet normal 0.0000000E+00 -0.0000000E+00 1.0000000E+00
outer loop
vertex -1.4142000E-02 1.7142000E-02 0.0000000E+00
vertex 0.0000000E+00 2.4422999E-02 0.0000000E+00
vertex -1.7269000E-02 1.7269000E-02 0.0000000E+00
endloop
endfacet
facet normal 0.0000000E+00 -0.0000000E+00 1.0000000E+00
outer loop
vertex -1.6263001E-02 1.6263001E-02 0.0000000E+00
vertex -1.4142000E-02 1.7142000E-02 0.0000000E+00
vertex -1.7269000E-02 1.7269000E-02 0.0000000E+00
endloop
endfacet
facet normal -0.0000000E+00 0.0000000E+00 1.0000000E+00
outer loop
vertex -1.4142000E-02 -1.1142000E-02 0.0000000E+00
vertex -1.2021000E-02 -1.2021000E-02 0.0000000E+00
vertex -8.8390000E-03 -8.8390000E-03 0.0000000E+00
endloop
endfacet
facet normal 0.0000000E+00 0.0000000E+00 1.0000000E+00
outer loop
vertex -8.8390000E-03 -8.8390000E-03 0.0000000E+00
vertex -1.2021000E-02 -1.2021000E-02 0.0000000E+00
vertex -1.1142000E-02 -1.4142000E-02 0.0000000E+00
endloop
endfacet
facet normal 0.0000000E+00 0.0000000E+00 1.0000000E+00
outer loop
vertex 0.0000000E+00 -1.2500000E-02 0.0000000E+00
vertex -1.1142000E-02 -1.4142000E-02 0.0000000E+00
vertex -1.2021000E-02 -1.6263001E-02 0.0000000E+00
endloop
endfacet
facet normal 0.0000000E+00 0.0000000E+00 1.0000000E+00
outer loop
vertex 0.0000000E+00 -2.4422999E-02 0.0000000E+00
vertex -1.2021000E-02 -1.6263001E-02 0.0000000E+00
vertex -1.4142000E-02 -1.7142000E-02 0.0000000E+00
endloop
endfacet
facet normal 0.0000000E+00 0.0000000E+00 1.0000000E+00
outer loop
vertex -1.7269000E-02 -1.7269000E-02 0.0000000E+00
vertex -1.4142000E-02 -1.7142000E-02 0.0000000E+00
vertex -1.6263001E-02 -1.6263001E-02 0.0000000E+00
endloop
endfacet
facet normal 0.0000000E+00 0.0000000E+00 1.0000000E+00
outer loop
vertex -1.7142000E-02 -1.4142000E-02 0.0000000E+00
vertex -1.7269000E-02 -1.7269000E-02 0.0000000E+00
vertex -1.6263001E-02 -1.6263001E-02 0.0000000E+00
endloop
endfacet
facet normal 0.0000000E+00 0.0000000E+00 1.0000000E+00
outer loop
vertex 1.7142000E-02 -1.4142000E-02 0.0000000E+00
vertex 1.6263001E-02 -1.6263001E-02 0.0000000E+00
vertex 1.7269000E-02 -1.7269000E-02 0.0000000E+00
endloop
endfacet
facet normal -0.0000000E+00 0.0000000E+00 1.0000000E+00
outer loop
vertex 2.2120999E-02 -2.1210001E-03 0.0000000E+00
vertex 1.7269000E-02 -1.7269000E-02 0.0000000E+00
vertex 2.4422999E-02 -9.0588533E-17 0.0000000E+00
endloop
endfacet
facet normal -0.0000000E+00 -0.0000000E+00 1.0000000E+00
outer loop
vertex 2.3000000E-02 -9.0501401E-17 0.0000000E+00
vertex 2.4422999E-02 -9.0588533E-17 0.0000000E+00
vertex 2.2120999E-02 2.1210001E-03 0.0000000E+00
endloop
endfacet
facet normal 0.0000000E+00 0.0000000E+00 1.0000000E+00
outer loop
vertex 2.3000000E-02 -9.0501401E-17 0.0000000E+00
vertex 2.2120999E-02 -2.1210001E-03 0.0000000E+00
vertex 2.4422999E-02 -9.0588533E-17 0.0000000E+00
endloop
endfacet
facet normal 0.0000000E+00 0.0000000E+00 1.0000000E+00
outer loop
vertex -1.4142000E-02 1.1142000E-02 0.0000000E+00
vertex -1.6263001E-02 1.2021000E-02 0.0000000E+00
vertex -1.7879000E-02 2.1210001E-03 0.0000000E+00
endloop
endfacet
facet normal 0.0000000E+00 -0.0000000E+00 9.9999994E-01
outer loop
vertex -1.7879000E-02 2.1210001E-03 0.0000000E+00
vertex -1.6263001E-02 1.2021000E-02 0.0000000E+00
vertex -2.0000000E-02 3.0000000E-03 0.0000000E+00
endloop
endfacet
facet normal 0.0000000E+00 0.0000000E+00 1.0000000E+00
outer loop
vertex -2.0000000E-02 3.0000000E-03 0.0000000E+00
vertex -1.6263001E-02 1.2021000E-02 0.0000000E+00
vertex -1.7142000E-02 1.4142000E-02 0.0000000E+00
endloop
endfacet
facet normal 0.0000000E+00 0.0000000E+00 9.9999994E-01
outer loop
vertex -2.2120999E-02 2.1210001E-03 0.0000000E+00
vertex -1.7142000E-02 1.4142000E-02 0.0000000E+00
vertex -1.7269000E-02 1.7269000E-02 0.0000000E+00
endloop
endfacet
facet normal 0.0000000E+00 0.0000000E+00 1.0000000E+00
outer loop
vertex -2.2120999E-02 2.1210001E-03 0.0000000E+00
vertex -2.0000000E-02 3.0000000E-03 0.0000000E+00
vertex -1.7142000E-02 1.4142000E-02 0.0000000E+00
endloop
endfacet
facet normal -0.0000000E+00 0.0000000E+00 1.0000000E+00
outer loop
vertex -1.4142000E-02 1.7142000E-02 0.0000000E+00
vertex -1.2021000E-02 1.6263001E-02 0.0000000E+00
vertex 0.0000000E+00 2.4422999E-02 0.0000000E+00
endloop
endfacet
facet normal 0.0000000E+00 0.0000000E+00 1.0000000E+00
outer loop
vertex -1.2021000E-02 1.6263001E-02 0.0000000E+00
vertex -1.1142000E-02 1.4142000E-02 0.0000000E+00
vertex 0.0000000E+00 1.2500000E-02 0.0000000E+00
endloop
endfacet
facet normal 0.0000000E+00 0.0000000E+00 9.9999994E-01
outer loop
vertex -1.7879000E-02 -2.1210001E-03 0.0000000E+00
vertex -2.0000000E-02 -3.0000000E-03 0.0000000E+00
vertex -1.6263001E-02 -1.2021000E-02 0.0000000E+00
endloop
endfacet
facet normal 0.0000000E+00 0.0000000E+00 1.0000000E+00
outer loop
vertex -2.0000000E-02 -3.0000000E-03 0.0000000E+00
vertex -2.2120999E-02 -2.1210001E-03 0.0000000E+00
vertex -1.7142000E-02 -1.4142000E-02 0.0000000E+00
endloop
endfacet
facet normal 0.0000000E+00 0.0000000E+00 1.0000000E+00
outer loop
vertex 1.6263001E-02 -1.6263001E-02 0.0000000E+00
vertex 1.4142000E-02 -1.7142000E-02 0.0000000E+00
vertex 1.7269000E-02 -1.7269000E-02 0.0000000E+00
endloop
endfacet
facet normal 0.0000000E+00 0.0000000E+00 1.0000000E+00
outer loop
vertex 1.7269000E-02 -1.7269000E-02 0.0000000E+00
vertex 1.4142000E-02 -1.7142000E-02 0.0000000E+00
vertex 0.0000000E+00 -2.4422999E-02 0.0000000E+00
endloop
endfacet
facet normal 0.0000000E+00 0.0000000E+00 1.0000000E+00
outer loop
vertex 0.0000000E+00 -2.4422999E-02 0.0000000E+00
vertex 1.4142000E-02 -1.7142000E-02 0.0000000E+00
vertex 1.2021000E-02 -1.6263001E-02 0.0000000E+00
endloop
endfacet
facet normal 0.0000000E+00 0.0000000E+00 1.0000000E+00
outer loop
vertex 1.1142000E-02 -1.4142000E-02 0.0000000E+00
vertex 0.0000000E+00 -2.4422999E-02 0.0000000E+00
vertex 1.2021000E-02 -1.6263001E-02 0.0000000E+00
endloop
endfacet
facet normal 0.0000000E+00 0.0000000E+00 1.0000000E+00
outer loop
vertex 1.1142000E-02 -1.4142000E-02 0.0000000E+00
vertex 0.0000000E+00 -1.2500000E-02 0.0000000E+00
vertex 0.0000000E+00 -2.4422999E-02 0.0000000E+00
endloop
endfacet
facet normal 0.0000000E+00 0.0000000E+00 9.9999994E-01
outer loop
vertex 1.1142000E-02 -1.4142000E-02 0.0000000E+00
vertex 8.8390000E-03 -8.8390000E-03 0.0000000E+00
vertex 0.0000000E+00 -1.2500000E-02 0.0000000E+00
endloop
endfacet
facet normal 0.0000000E+00 -0.0000000E+00 1.0000000E+00
outer loop
vertex 1.1142000E-02 -1.4142000E-02 0.0000000E+00
vertex 1.2021000E-02 -1.2021000E-02 0.0000000E+00
vertex 8.8390000E-03 -8.8390000E-03 0.0000000E+00
endloop
endfacet
facet normal 0.0000000E+00 0.0000000E+00 1.0000000E+00
outer loop
vertex 8.8390000E-03 -8.8390000E-03 0.0000000E+00
vertex 1.2021000E-02 -1.2021000E-02 0.0000000E+00
vertex 1.4142000E-02 -1.1142000E-02 0.0000000E+00
endloop
endfacet
facet normal 0.0000000E+00 0.0000000E+00 9.9999994E-01
outer loop
vertex 1.2500000E-02 -8.9858456E-17 0.0000000E+00
vertex 1.4142000E-02 -1.1142000E-02 0.0000000E+00
vertex 1.7879000E-02 -2.1210001E-03 0.0000000E+00
endloop
endfacet
facet normal 0.0000000E+00 0.0000000E+00 1.0000000E+00
outer loop
vertex 1.7000001E-02 -9.0134007E-17 0.0000000E+00
vertex 1.2500000E-02 -8.9858456E-17 0.0000000E+00
vertex 1.7879000E-02 -2.1210001E-03 0.0000000E+00
endloop
endfacet
facet normal 0.0000000E+00 -0.0000000E+00 1.0000000E+00
outer loop
vertex 1.7000001E-02 -9.0134007E-17 0.0000000E+00
vertex 1.7879000E-02 2.1210001E-03 0.0000000E+00
vertex 1.2500000E-02 -8.9858456E-17 0.0000000E+00
endloop
endfacet
facet normal 0.0000000E+00 0.0000000E+00 9.9999994E-01
outer loop
vertex 1.2500000E-02 -8.9858456E-17 0.0000000E+00
vertex 1.7879000E-02 2.1210001E-03 0.0000000E+00
vertex 1.4142000E-02 1.1142000E-02 0.0000000E+00
endloop
endfacet
facet normal 0.0000000E+00 0.0000000E+00 1.0000000E+00
outer loop
vertex 8.8390000E-03 8.8390000E-03 0.0000000E+00
vertex 1.4142000E-02 1.1142000E-02 0.0000000E+00
vertex 1.2021000E-02 1.2021000E-02 0.0000000E+00
endloop
endfacet
facet normal 0.0000000E+00 0.0000000E+00 1.0000000E+00
outer loop
vertex 1.1142000E-02 1.4142000E-02 0.0000000E+00
vertex 8.8390000E-03 8.8390000E-03 0.0000000E+00
vertex 1.2021000E-02 1.2021000E-02 0.0000000E+00
endloop
endfacet
facet normal 0.0000000E+00 0.0000000E+00 9.9999994E-01
outer loop
vertex 1.1142000E-02 1.4142000E-02 0.0000000E+00
vertex 0.0000000E+00 1.2500000E-02 0.0000000E+00
vertex 8.8390000E-03 8.8390000E-03 0.0000000E+00
endloop
endfacet
facet normal 0.0000000E+00 0.0000000E+00 1.0000000E+00
outer loop
vertex 1.1142000E-02 1.4142000E-02 0.0000000E+00
vertex 0.0000000E+00 2.4422999E-02 0.0000000E+00
vertex 0.0000000E+00 1.2500000E-02 0.0000000E+00
endloop
endfacet
facet normal -0.0000000E+00 0.0000000E+00 1.0000000E+00
outer loop
vertex 1.4142000E-02 -1.1142000E-02 0.0000000E+00
vertex 1.6263001E-02 -1.2021000E-02 0.0000000E+00
vertex 1.7879000E-02 -2.1210001E-03 0.0000000E+00
endloop
endfacet
facet normal 0.0000000E+00 0.0000000E+00 9.9999994E-01
outer loop
vertex 1.7879000E-02 -2.1210001E-03 0.0000000E+00
vertex 1.6263001E-02 -1.2021000E-02 0.0000000E+00
vertex 2.0000000E-02 -3.0000000E-03 0.0000000E+00
endloop
endfacet
facet normal 0.0000000E+00 0.0000000E+00 1.0000000E+00
outer loop
vertex 2.0000000E-02 -3.0000000E-03 0.0000000E+00
vertex 1.6263001E-02 -1.2021000E-02 0.0000000E+00
vertex 1.7142000E-02 -1.4142000E-02 0.0000000E+00
endloop
endfacet
facet normal 0.0000000E+00 0.0000000E+00 9.9999994E-01
outer loop
vertex 2.2120999E-02 -2.1210001E-03 0.0000000E+00
vertex 1.7142000E-02 -1.4142000E-02 0.0000000E+00
vertex 1.7269000E-02 -1.7269000E-02 0.0000000E+00
endloop
endfacet
facet normal 0.0000000E+00 0.0000000E+00 1.0000000E+00
outer loop
vertex 2.2120999E-02 -2.1210001E-03 0.0000000E+00
vertex 2.0000000E-02 -3.0000000E-03 0.0000000E+00
vertex 1.7142000E-02 -1.4142000E-02 0.0000000E+00
endloop
endfacet
facet normal -0.0000000E+00 0.0000000E+00 1.0000000E+00
outer loop
vertex 1.4142000E-02 1.1142000E-02 0.0000000E+00
vertex 1.7879000E-02 2.1210001E-03 0.0000000E+00
vertex 1.6263001E-02 1.2021000E-02 0.0000000E+00
endloop
endfacet
facet normal 0.0000000E+00 0.0000000E+00 1.0000000E+00
outer loop
vertex 1.6263001E-02 1.2021000E-02 0.0000000E+00
vertex 1.7879000E-02 2.1210001E-03 0.0000000E+00
vertex 2.0000000E-02 3.0000000E-03 0.0000000E+00
endloop
endfacet
facet normal 0.0000000E+00 0.0000000E+00 1.0000000E+00
outer loop
vertex 1.7142000E-02 1.4142000E-02 0.0000000E+00
vertex 2.0000000E-02 3.0000000E-03 0.0000000E+00
vertex 2.2120999E-02 2.1210001E-03 0.0000000E+00
endloop
endfacet
facet normal 0.0000000E+00 0.0000000E+00 9.9999994E-01
outer loop
vertex 1.7269000E-02 1.7269000E-02 0.0000000E+00
vertex 2.2120999E-02 2.1210001E-03 0.0000000E+00
vertex 2.4422999E-02 -9.0588533E-17 0.0000000E+00
endloop
endfacet
facet normal 0.0000000E+00 0.0000000E+00 1.0000000E+00
outer loop
vertex 1.7269000E-02 1.7269000E-02 0.0000000E+00
vertex 1.7142000E-02 1.4142000E-02 0.0000000E+00
vertex 2.2120999E-02 2.1210001E-03 0.0000000E+00
endloop
endfacet
facet normal -0.0000000E+00 0.0000000E+00 1.0000000E+00
outer loop
vertex 1.4142000E-02 1.7142000E-02 0.0000000E+00
vertex 1.6263001E-02 1.6263001E-02 0.0000000E+00
vertex 1.7269000E-02 1.7269000E-02 0.0000000E+00
endloop
endfacet
facet normal -0.0000000E+00 0.0000000E+00 9.9999994E-01
outer loop
vertex 8.8390000E-03 8.8390000E-03 0.0000000E+00
vertex 1.2500000E-02 -8.9858456E-17 0.0000000E+00
vertex 1.4142000E-02 1.1142000E-02 0.0000000E+00
endloop
endfacet
facet normal 0.0000000E+00 0.0000000E+00 9.9999994E-01
outer loop
vertex 1.2500000E-02 -8.9858456E-17 0.0000000E+00
vertex 8.8390000E-03 -8.8390000E-03 0.0000000E+00
vertex 1.4142000E-02 -1.1142000E-02 0.0000000E+00
endloop
endfacet
facet normal 0.0000000E+00 0.0000000E+00 9.9999994E-01
outer loop
vertex 0.0000000E+00 -1.2500000E-02 0.0000000E+00
vertex -8.8390000E-03 -8.8390000E-03 0.0000000E+00
vertex -1.1142000E-02 -1.4142000E-02 0.0000000E+00
endloop
endfacet
facet normal -0.0000000E+00 0.0000000E+00 1.0000000E+00
outer loop
vertex 1.6263001E-02 1.2021000E-02 0.0000000E+00
vertex 2.0000000E-02 3.0000000E-03 0.0000000E+00
vertex 1.7142000E-02 1.4142000E-02 0.0000000E+00
endloop
endfacet
facet normal 0.0000000E+00 0.0000000E+00 1.0000000E+00
outer loop
vertex -1.4142000E-02 -1.7142000E-02 0.0000000E+00
vertex -1.7269000E-02 -1.7269000E-02 0.0000000E+00
vertex 0.0000000E+00 -2.4422999E-02 0.0000000E+00
endloop
endfacet
facet normal 0.0000000E+00 0.0000000E+00 9.9999994E-01
outer loop
vertex 0.0000000E+00 -1.2500000E-02 0.0000000E+00
vertex -1.2021000E-02 -1.6263001E-02 0.0000000E+00
vertex 0.0000000E+00 -2.4422999E-02 0.0000000E+00
endloop
endfacet
facet normal 8.1527972E-01 3.3767837E-01 4.7041717E-01
outer loop
vertex 1.7678000E-02 1.7678000E-02 -1.0000000E-03
vertex 2.4422999E-02 -9.0588533E-17 0.0000000E+00
vertex 2.5000000E-02 -9.0440163E-17 -1.0000000E-03
endloop
endfacet
facet normal 8.1481296E-01 3.3755115E-01 4.7131646E-01
outer loop
vertex 1.7678000E-02 1.7678000E-02 -1.0000000E-03
vertex 1.7269000E-02 1.7269000E-02 0.0000000E+00
vertex 2.4422999E-02 -9.0588533E-17 0.0000000E+00
endloop
endfacet
facet normal 3.3749685E-01 8.1484145E-01 4.7130588E-01
outer loop
vertex 1.7678000E-02 1.7678000E-02 -1.0000000E-03
vertex 0.0000000E+00 2.5000000E-02 -1.0000000E-03
vertex 1.7269000E-02 1.7269000E-02 0.0000000E+00
endloop
endfacet
facet normal 3.3773693E-01 8.1526142E-01 4.7040680E-01
outer loop
vertex 1.7269000E-02 1.7269000E-02 0.0000000E+00
vertex 0.0000000E+00 2.5000000E-02 -1.0000000E-03
vertex 0.0000000E+00 2.4422999E-02 0.0000000E+00
endloop
endfacet
facet normal -3.3767840E-01 8.1527978E-01 4.7041717E-01
outer loop
vertex 0.0000000E+00 2.4422999E-02 0.0000000E+00
vertex 0.0000000E+00 2.5000000E-02 -1.0000000E-03
vertex -1.7678000E-02 1.7678000E-02 -1.0000000E-03
endloop
endfacet
facet normal -8.1484145E-01 3.3749685E-01 4.7130588E-01
outer loop
vertex -1.7269000E-02 1.7269000E-02 0.0000000E+00
vertex -1.7678000E-02 1.7678000E-02 -1.0000000E-03
vertex -2.5000000E-02 -8.7378549E-17 -1.0000000E-03
endloop
endfacet
facet normal -8.1527978E-01 -3.3767840E-01 4.7041717E-01
outer loop
vertex -2.4422999E-02 -8.7597580E-17 0.0000000E+00
vertex -2.5000000E-02 -8.7378549E-17 -1.0000000E-03
vertex -1.7678000E-02 -1.7678000E-02 -1.0000000E-03
endloop
endfacet
facet normal -3.3749685E-01 -8.1484145E-01 4.7130588E-01
outer loop
vertex -1.7269000E-02 -1.7269000E-02 0.0000000E+00
vertex -1.7678000E-02 -1.7678000E-02 -1.0000000E-03
vertex 0.0000000E+00 -2.5000000E-02 -1.0000000E-03
endloop
endfacet
facet normal 3.3767840E-01 -8.1527978E-01 4.7041717E-01
outer loop
vertex 0.0000000E+00 -2.4422999E-02 0.0000000E+00
vertex 0.0000000E+00 -2.5000000E-02 -1.0000000E-03
vertex 1.7678000E-02 -1.7678000E-02 -1.0000000E-03
endloop
endfacet
facet normal 8.1484145E-01 -3.3749685E-01 4.7130588E-01
outer loop
vertex 1.7269000E-02 -1.7269000E-02 0.0000000E+00
vertex 1.7678000E-02 -1.7678000E-02 -1.0000000E-03
vertex 2.5000000E-02 -9.0440163E-17 -1.0000000E-03
endloop
endfacet
facet normal 8.1526148E-01 -3.3773696E-01 4.7040656E-01
outer loop
vertex 2.4422999E-02 -9.0588533E-17 0.0000000E+00
vertex 1.7269000E-02 -1.7269000E-02 0.0000000E+00
vertex 2.5000000E-02 -9.0440163E-17 -1.0000000E-03
endloop
endfacet
facet normal 3.3755115E-01 -8.1481296E-01 4.7131646E-01
outer loop
vertex 1.7269000E-02 -1.7269000E-02 0.0000000E+00
vertex 0.0000000E+00 -2.4422999E-02 0.0000000E+00
vertex 1.7678000E-02 -1.7678000E-02 -1.0000000E-03
endloop
endfacet
facet normal -3.3773696E-01 -8.1526148E-01 4.7040656E-01
outer loop
vertex 0.0000000E+00 -2.4422999E-02 0.0000000E+00
vertex -1.7269000E-02 -1.7269000E-02 0.0000000E+00
vertex 0.0000000E+00 -2.5000000E-02 -1.0000000E-03
endloop
endfacet
facet normal -8.1481296E-01 -3.3755115E-01 4.7131646E-01
outer loop
vertex -1.7269000E-02 -1.7269000E-02 0.0000000E+00
vertex -2.4422999E-02 -8.7597580E-17 0.0000000E+00
vertex -1.7678000E-02 -1.7678000E-02 -1.0000000E-03
endloop
endfacet
facet normal -8.1526148E-01 3.3773696E-01 4.7040656E-01
outer loop
vertex -2.4422999E-02 -8.7597580E-17 0.0000000E+00
vertex -1.7269000E-02 1.7269000E-02 0.0000000E+00
vertex -2.5000000E-02 -8.7378549E-17 -1.0000000E-03
endloop
endfacet
facet normal -3.3755115E-01 8.1481296E-01 4.7131646E-01
outer loop
vertex -1.7269000E-02 1.7269000E-02 0.0000000E+00
vertex 0.0000000E+00 2.4422999E-02 0.0000000E+00
vertex -1.7678000E-02 1.7678000E-02 -1.0000000E-03
endloop
endfacet
facet normal -9.2388809E-01 -3.8266256E-01 0.0000000E+00
outer loop
vertex -1.7678000E-02 -1.7678000E-02 -6.2000002E-03
vertex -1.7678000E-02 -1.7678000E-02 -1.0000000E-03
vertex -2.5000000E-02 -8.6423327E-17 -6.2000002E-03
endloop
endfacet
facet normal -3.8266256E-01 -9.2388809E-01 0.0000000E+00
outer loop
vertex -1.7678000E-02 -1.7678000E-02 -6.2000002E-03
vertex 0.0000000E+00 -2.5000000E-02 -1.0000000E-03
vertex -1.7678000E-02 -1.7678000E-02 -1.0000000E-03
endloop
endfacet
facet normal -3.8266256E-01 -9.2388809E-01 0.0000000E+00
outer loop
vertex -1.7678000E-02 -1.7678000E-02 -6.2000002E-03
vertex 0.0000000E+00 -2.5000000E-02 -6.2000002E-03
vertex 0.0000000E+00 -2.5000000E-02 -1.0000000E-03
endloop
endfacet
facet normal 3.8266256E-01 -9.2388809E-01 0.0000000E+00
outer loop
vertex 0.0000000E+00 -2.5000000E-02 -1.0000000E-03
vertex 0.0000000E+00 -2.5000000E-02 -6.2000002E-03
vertex 1.7678000E-02 -1.7678000E-02 -1.0000000E-03
endloop
endfacet
facet normal 3.8266256E-01 -9.2388809E-01 0.0000000E+00
outer loop
vertex 1.7678000E-02 -1.7678000E-02 -1.0000000E-03
vertex 0.0000000E+00 -2.5000000E-02 -6.2000002E-03
vertex 1.7678000E-02 -1.7678000E-02 -6.2000002E-03
endloop
endfacet
facet normal 9.2388809E-01 -3.8266256E-01 -7.0293762E-17
outer loop
vertex 2.5000000E-02 -9.0440163E-17 -1.0000000E-03
vertex 1.7678000E-02 -1.7678000E-02 -6.2000002E-03
vertex 2.5000000E-02 -8.9484941E-17 -6.2000002E-03
endloop
endfacet
facet normal 9.2388809E-01 3.8266256E-01 0.0000000E+00
outer loop
vertex 1.7678000E-02 1.7678000E-02 -1.0000000E-03
vertex 2.5000000E-02 -8.9484941E-17 -6.2000002E-03
vertex 1.7678000E-02 1.7678000E-02 -6.2000002E-03
endloop
endfacet
facet normal 3.8266256E-01 9.2388809E-01 0.0000000E+00
outer loop
vertex 0.0000000E+00 2.5000000E-02 -1.0000000E-03
vertex 1.7678000E-02 1.7678000E-02 -6.2000002E-03
vertex 0.0000000E+00 2.5000000E-02 -6.2000002E-03
endloop
endfacet
facet normal -3.8266256E-01 9.2388809E-01 0.0000000E+00
outer loop
vertex -1.7678000E-02 1.7678000E-02 -1.0000000E-03
vertex 0.0000000E+00 2.5000000E-02 -6.2000002E-03
vertex -1.7678000E-02 1.7678000E-02 -6.2000002E-03
endloop
endfacet
facet normal -9.2388809E-01 3.8266256E-01 7.0293762E-17
outer loop
vertex -2.5000000E-02 -8.7378549E-17 -1.0000000E-03
vertex -1.7678000E-02 1.7678000E-02 -6.2000002E-03
vertex -2.5000000E-02 -8.6423327E-17 -6.2000002E-03
endloop
endfacet
facet normal -9.2388809E-01 -3.8266256E-01 0.0000000E+00
outer loop
vertex -1.7678000E-02 -1.7678000E-02 -1.0000000E-03
vertex -2.5000000E-02 -8.7378549E-17 -1.0000000E-03
vertex -2.5000000E-02 -8.6423327E-17 -6.2000002E-03
endloop
endfacet
facet normal 9.2388809E-01 -3.8266256E-01 0.0000000E+00
outer loop
vertex 2.5000000E-02 -9.0440163E-17 -1.0000000E-03
vertex 1.7678000E-02 -1.7678000E-02 -1.0000000E-03
vertex 1.7678000E-02 -1.7678000E-02 -6.2000002E-03
endloop
endfacet
facet normal -9.2388809E-01 3.8266256E-01 0.0000000E+00
outer loop
vertex -2.5000000E-02 -8.7378549E-17 -1.0000000E-03
vertex -1.7678000E-02 1.7678000E-02 -1.0000000E-03
vertex -1.7678000E-02 1.7678000E-02 -6.2000002E-03
endloop
endfacet
facet normal -3.8266256E-01 9.2388809E-01 0.0000000E+00
outer loop
vertex -1.7678000E-02 1.7678000E-02 -1.0000000E-03
vertex 0.0000000E+00 2.5000000E-02 -1.0000000E-03
vertex 0.0000000E+00 2.5000000E-02 -6.2000002E-03
endloop
endfacet
facet normal 3.8266256E-01 9.2388809E-01 0.0000000E+00
outer loop
vertex 0.0000000E+00 2.5000000E-02 -1.0000000E-03
vertex 1.7678000E-02 1.7678000E-02 -1.0000000E-03
vertex 1.7678000E-02 1.7678000E-02 -6.2000002E-03
endloop
endfacet
facet normal 9.2388809E-01 3.8266256E-01 0.0000000E+00
outer loop
vertex 1.7678000E-02 1.7678000E-02 -1.0000000E-03
vertex 2.5000000E-02 -9.0440163E-17 -1.0000000E-03
vertex 2.5000000E-02 -8.9484941E-17 -6.2000002E-03
endloop
endfacet
facet normal -0.0000000E+00 0.0000000E+00 -1.0000000E+00
outer loop
vertex -1.6263001E-02 1.6263001E-02 -6.2000002E-03
vertex -1.7142000E-02 1.4142000E-02 -6.2000002E-03
vertex -1.7678000E-02 1.7678000E-02 -6.2000002E-03
endloop
endfacet
facet normal 0.0000000E+00 0.0000000E+00 -1.0000000E+00
outer loop
vertex -1.4142000E-02 1.7142000E-02 -6.2000002E-03
vertex -1.7678000E-02 1.7678000E-02 -6.2000002E-03
vertex 0.0000000E+00 2.5000000E-02 -6.2000002E-03
endloop
endfacet
facet normal 0.0000000E+00 0.0000000E+00 -1.0000000E+00
outer loop
vertex -1.2021000E-02 1.6263001E-02 -6.2000002E-03
vertex 0.0000000E+00 2.5000000E-02 -6.2000002E-03
vertex 0.0000000E+00 1.2500000E-02 -6.2000002E-03
endloop
endfacet
facet normal 0.0000000E+00 0.0000000E+00 -9.9999994E-01
outer loop
vertex -1.1142000E-02 1.4142000E-02 -6.2000002E-03
vertex 0.0000000E+00 1.2500000E-02 -6.2000002E-03
vertex -8.8390000E-03 8.8390000E-03 -6.2000002E-03
endloop
endfacet
facet normal 0.0000000E+00 -0.0000000E+00 -1.0000000E+00
outer loop
vertex -1.2021000E-02 1.2021000E-02 -6.2000002E-03
vertex -8.8390000E-03 8.8390000E-03 -6.2000002E-03
vertex -1.4142000E-02 1.1142000E-02 -6.2000002E-03
endloop
endfacet
facet normal 0.0000000E+00 0.0000000E+00 -1.0000000E+00
outer loop
vertex -1.2021000E-02 1.2021000E-02 -6.2000002E-03
vertex -1.1142000E-02 1.4142000E-02 -6.2000002E-03
vertex -8.8390000E-03 8.8390000E-03 -6.2000002E-03
endloop
endfacet
facet normal 0.0000000E+00 0.0000000E+00 -1.0000000E+00
outer loop
vertex 1.7142000E-02 1.4142000E-02 -6.2000002E-03
vertex 1.6263001E-02 1.6263001E-02 -6.2000002E-03
vertex 1.7678000E-02 1.7678000E-02 -6.2000002E-03
endloop
endfacet
facet normal 0.0000000E+00 0.0000000E+00 -1.0000000E+00
outer loop
vertex 2.2120999E-02 2.1210001E-03 -6.2000002E-03
vertex 1.7678000E-02 1.7678000E-02 -6.2000002E-03
vertex 2.5000000E-02 -8.9484941E-17 -6.2000002E-03
endloop
endfacet
facet normal 0.0000000E+00 -0.0000000E+00 -1.0000000E+00
outer loop
vertex 2.3000000E-02 -8.9362479E-17 -6.2000002E-03
vertex 2.5000000E-02 -8.9484941E-17 -6.2000002E-03
vertex 2.2120999E-02 -2.1210001E-03 -6.2000002E-03
endloop
endfacet
facet normal 0.0000000E+00 0.0000000E+00 -1.0000000E+00
outer loop
vertex 2.3000000E-02 -8.9362479E-17 -6.2000002E-03
vertex 2.2120999E-02 2.1210001E-03 -6.2000002E-03
vertex 2.5000000E-02 -8.9484941E-17 -6.2000002E-03
endloop
endfacet
facet normal 0.0000000E+00 0.0000000E+00 -1.0000000E+00
outer loop
vertex 2.5000000E-02 -8.9484941E-17 -6.2000002E-03
vertex 1.7678000E-02 -1.7678000E-02 -6.2000002E-03
vertex 2.2120999E-02 -2.1210001E-03 -6.2000002E-03
endloop
endfacet
facet normal 0.0000000E+00 0.0000000E+00 -1.0000000E+00
outer loop
vertex 2.2120999E-02 -2.1210001E-03 -6.2000002E-03
vertex 1.7678000E-02 -1.7678000E-02 -6.2000002E-03
vertex 1.7142000E-02 -1.4142000E-02 -6.2000002E-03
endloop
endfacet
facet normal 0.0000000E+00 0.0000000E+00 -1.0000000E+00
outer loop
vertex 2.0000000E-02 -3.0000000E-03 -6.2000002E-03
vertex 1.7142000E-02 -1.4142000E-02 -6.2000002E-03
vertex 1.6263001E-02 -1.2021000E-02 -6.2000002E-03
endloop
endfacet
facet normal 0.0000000E+00 0.0000000E+00 -1.0000000E+00
outer loop
vertex 1.7879000E-02 -2.1210001E-03 -6.2000002E-03
vertex 1.6263001E-02 -1.2021000E-02 -6.2000002E-03
vertex 1.4142000E-02 -1.1142000E-02 -6.2000002E-03
endloop
endfacet
facet normal 0.0000000E+00 -0.0000000E+00 -9.9999994E-01
outer loop
vertex 1.2500000E-02 -8.8719535E-17 -6.2000002E-03
vertex 1.4142000E-02 -1.1142000E-02 -6.2000002E-03
vertex 8.8390000E-03 -8.8390000E-03 -6.2000002E-03
endloop
endfacet
facet normal 0.0000000E+00 0.0000000E+00 -9.9999994E-01
outer loop
vertex 1.2500000E-02 -8.8719535E-17 -6.2000002E-03
vertex 1.7879000E-02 -2.1210001E-03 -6.2000002E-03
vertex 1.4142000E-02 -1.1142000E-02 -6.2000002E-03
endloop
endfacet
facet normal 0.0000000E+00 0.0000000E+00 -1.0000000E+00
outer loop
vertex 1.2500000E-02 -8.8719535E-17 -6.2000002E-03
vertex 1.7000001E-02 -8.8995085E-17 -6.2000002E-03
vertex 1.7879000E-02 -2.1210001E-03 -6.2000002E-03
endloop
endfacet
facet normal 0.0000000E+00 0.0000000E+00 -1.0000000E+00
outer loop
vertex 1.2500000E-02 -8.8719535E-17 -6.2000002E-03
vertex 1.7879000E-02 2.1210001E-03 -6.2000002E-03
vertex 1.7000001E-02 -8.8995085E-17 -6.2000002E-03
endloop
endfacet
facet normal 0.0000000E+00 0.0000000E+00 -9.9999994E-01
outer loop
vertex 1.2500000E-02 -8.8719535E-17 -6.2000002E-03
vertex 1.4142000E-02 1.1142000E-02 -6.2000002E-03
vertex 1.7879000E-02 2.1210001E-03 -6.2000002E-03
endloop
endfacet
facet normal 0.0000000E+00 0.0000000E+00 -9.9999994E-01
outer loop
vertex 1.2500000E-02 -8.8719535E-17 -6.2000002E-03
vertex 8.8390000E-03 8.8390000E-03 -6.2000002E-03
vertex 1.4142000E-02 1.1142000E-02 -6.2000002E-03
endloop
endfacet
facet normal -0.0000000E+00 0.0000000E+00 -1.0000000E+00
outer loop
vertex 1.4142000E-02 1.1142000E-02 -6.2000002E-03
vertex 8.8390000E-03 8.8390000E-03 -6.2000002E-03
vertex 1.2021000E-02 1.2021000E-02 -6.2000002E-03
endloop
endfacet
facet normal -0.0000000E+00 0.0000000E+00 -1.0000000E+00
outer loop
vertex 1.2021000E-02 1.2021000E-02 -6.2000002E-03
vertex 8.8390000E-03 8.8390000E-03 -6.2000002E-03
vertex 1.1142000E-02 1.4142000E-02 -6.2000002E-03
endloop
endfacet
facet normal 0.0000000E+00 0.0000000E+00 -9.9999994E-01
outer loop
vertex 1.1142000E-02 1.4142000E-02 -6.2000002E-03
vertex 8.8390000E-03 8.8390000E-03 -6.2000002E-03
vertex 0.0000000E+00 1.2500000E-02 -6.2000002E-03
endloop
endfacet
facet normal -0.0000000E+00 0.0000000E+00 -1.0000000E+00
outer loop
vertex 1.2021000E-02 1.6263001E-02 -6.2000002E-03
vertex 0.0000000E+00 1.2500000E-02 -6.2000002E-03
vertex 0.0000000E+00 2.5000000E-02 -6.2000002E-03
endloop
endfacet
facet normal 0.0000000E+00 0.0000000E+00 -1.0000000E+00
outer loop
vertex 1.4142000E-02 1.7142000E-02 -6.2000002E-03
vertex 0.0000000E+00 2.5000000E-02 -6.2000002E-03
vertex 1.7678000E-02 1.7678000E-02 -6.2000002E-03
endloop
endfacet
facet normal 0.0000000E+00 0.0000000E+00 -1.0000000E+00
outer loop
vertex 1.6263001E-02 1.6263001E-02 -6.2000002E-03
vertex 1.4142000E-02 1.7142000E-02 -6.2000002E-03
vertex 1.7678000E-02 1.7678000E-02 -6.2000002E-03
endloop
endfacet
facet normal -0.0000000E+00 0.0000000E+00 -1.0000000E+00
outer loop
vertex 1.4142000E-02 -1.1142000E-02 -6.2000002E-03
vertex 1.2021000E-02 -1.2021000E-02 -6.2000002E-03
vertex 8.8390000E-03 -8.8390000E-03 -6.2000002E-03
endloop
endfacet
facet normal 0.0000000E+00 0.0000000E+00 -1.0000000E+00
outer loop
vertex 8.8390000E-03 -8.8390000E-03 -6.2000002E-03
vertex 1.2021000E-02 -1.2021000E-02 -6.2000002E-03
vertex 1.1142000E-02 -1.4142000E-02 -6.2000002E-03
endloop
endfacet
facet normal 0.0000000E+00 0.0000000E+00 -1.0000000E+00
outer loop
vertex 0.0000000E+00 -1.2500000E-02 -6.2000002E-03
vertex 1.1142000E-02 -1.4142000E-02 -6.2000002E-03
vertex 1.2021000E-02 -1.6263001E-02 -6.2000002E-03
endloop
endfacet
facet normal 0.0000000E+00 0.0000000E+00 -1.0000000E+00
outer loop
vertex 0.0000000E+00 -2.5000000E-02 -6.2000002E-03
vertex 1.2021000E-02 -1.6263001E-02 -6.2000002E-03
vertex 1.4142000E-02 -1.7142000E-02 -6.2000002E-03
endloop
endfacet
facet normal 0.0000000E+00 0.0000000E+00 -1.0000000E+00
outer loop
vertex 1.7678000E-02 -1.7678000E-02 -6.2000002E-03
vertex 1.4142000E-02 -1.7142000E-02 -6.2000002E-03
vertex 1.6263001E-02 -1.6263001E-02 -6.2000002E-03
endloop
endfacet
facet normal 0.0000000E+00 -0.0000000E+00 -1.0000000E+00
outer loop
vertex 1.7142000E-02 -1.4142000E-02 -6.2000002E-03
vertex 1.7678000E-02 -1.7678000E-02 -6.2000002E-03
vertex 1.6263001E-02 -1.6263001E-02 -6.2000002E-03
endloop
endfacet
facet normal 0.0000000E+00 -0.0000000E+00 -1.0000000E+00
outer loop
vertex -1.7142000E-02 -1.4142000E-02 -6.2000002E-03
vertex -1.6263001E-02 -1.6263001E-02 -6.2000002E-03
vertex -1.7678000E-02 -1.7678000E-02 -6.2000002E-03
endloop
endfacet
facet normal -0.0000000E+00 -0.0000000E+00 -1.0000000E+00
outer loop
vertex -2.2120999E-02 -2.1210001E-03 -6.2000002E-03
vertex -1.7678000E-02 -1.7678000E-02 -6.2000002E-03
vertex -2.5000000E-02 -8.6423327E-17 -6.2000002E-03
endloop
endfacet
facet normal 0.0000000E+00 0.0000000E+00 -1.0000000E+00
outer loop
vertex -2.3000000E-02 -8.6545790E-17 -6.2000002E-03
vertex -2.5000000E-02 -8.6423327E-17 -6.2000002E-03
vertex -2.2120999E-02 2.1210001E-03 -6.2000002E-03
endloop
endfacet
facet normal -0.0000000E+00 -0.0000000E+00 -1.0000000E+00
outer loop
vertex -2.3000000E-02 -8.6545790E-17 -6.2000002E-03
vertex -2.2120999E-02 -2.1210001E-03 -6.2000002E-03
vertex -2.5000000E-02 -8.6423327E-17 -6.2000002E-03
endloop
endfacet
facet normal -0.0000000E+00 0.0000000E+00 -9.9999994E-01
outer loop
vertex -8.8390000E-03 8.8390000E-03 -6.2000002E-03
vertex -1.2500000E-02 -8.7188728E-17 -6.2000002E-03
vertex -1.4142000E-02 1.1142000E-02 -6.2000002E-03
endloop
endfacet
facet normal 0.0000000E+00 -0.0000000E+00 -9.9999994E-01
outer loop
vertex -1.4142000E-02 1.1142000E-02 -6.2000002E-03
vertex -1.2500000E-02 -8.7188728E-17 -6.2000002E-03
vertex -1.7879000E-02 2.1210001E-03 -6.2000002E-03
endloop
endfacet
facet normal 0.0000000E+00 0.0000000E+00 -1.0000000E+00
outer loop
vertex -1.6263001E-02 1.2021000E-02 -6.2000002E-03
vertex -1.7879000E-02 2.1210001E-03 -6.2000002E-03
vertex -2.0000000E-02 3.0000000E-03 -6.2000002E-03
endloop
endfacet
facet normal 0.0000000E+00 0.0000000E+00 -1.0000000E+00
outer loop
vertex -1.7142000E-02 1.4142000E-02 -6.2000002E-03
vertex -2.0000000E-02 3.0000000E-03 -6.2000002E-03
vertex -2.2120999E-02 2.1210001E-03 -6.2000002E-03
endloop
endfacet
facet normal 0.0000000E+00 0.0000000E+00 -1.0000000E+00
outer loop
vertex -1.7678000E-02 1.7678000E-02 -6.2000002E-03
vertex -2.2120999E-02 2.1210001E-03 -6.2000002E-03
vertex -2.5000000E-02 -8.6423327E-17 -6.2000002E-03
endloop
endfacet
facet normal 0.0000000E+00 -0.0000000E+00 -1.0000000E+00
outer loop
vertex -1.7678000E-02 1.7678000E-02 -6.2000002E-03
vertex -1.7142000E-02 1.4142000E-02 -6.2000002E-03
vertex -2.2120999E-02 2.1210001E-03 -6.2000002E-03
endloop
endfacet
facet normal 0.0000000E+00 -0.0000000E+00 -1.0000000E+00
outer loop
vertex -1.6263001E-02 1.2021000E-02 -6.2000002E-03
vertex -1.4142000E-02 1.1142000E-02 -6.2000002E-03
vertex -1.7879000E-02 2.1210001E-03 -6.2000002E-03
endloop
endfacet
facet normal 0.0000000E+00 0.0000000E+00 -1.0000000E+00
outer loop
vertex -1.1142000E-02 1.4142000E-02 -6.2000002E-03
vertex -1.2021000E-02 1.6263001E-02 -6.2000002E-03
vertex 0.0000000E+00 1.2500000E-02 -6.2000002E-03
endloop
endfacet
facet normal 0.0000000E+00 0.0000000E+00 -1.0000000E+00
outer loop
vertex -1.2021000E-02 1.6263001E-02 -6.2000002E-03
vertex -1.4142000E-02 1.7142000E-02 -6.2000002E-03
vertex 0.0000000E+00 2.5000000E-02 -6.2000002E-03
endloop
endfacet
facet normal -0.0000000E+00 0.0000000E+00 -1.0000000E+00
outer loop
vertex -1.4142000E-02 1.7142000E-02 -6.2000002E-03
vertex -1.6263001E-02 1.6263001E-02 -6.2000002E-03
vertex -1.7678000E-02 1.7678000E-02 -6.2000002E-03
endloop
endfacet
facet normal 0.0000000E+00 0.0000000E+00 -1.0000000E+00
outer loop
vertex -1.7678000E-02 -1.7678000E-02 -6.2000002E-03
vertex -2.2120999E-02 -2.1210001E-03 -6.2000002E-03
vertex -1.7142000E-02 -1.4142000E-02 -6.2000002E-03
endloop
endfacet
facet normal 0.0000000E+00 0.0000000E+00 -1.0000000E+00
outer loop
vertex -1.7142000E-02 -1.4142000E-02 -6.2000002E-03
vertex -2.2120999E-02 -2.1210001E-03 -6.2000002E-03
vertex -2.0000000E-02 -3.0000000E-03 -6.2000002E-03
endloop
endfacet
facet normal 0.0000000E+00 0.0000000E+00 -1.0000000E+00
outer loop
vertex -1.6263001E-02 -1.2021000E-02 -6.2000002E-03
vertex -2.0000000E-02 -3.0000000E-03 -6.2000002E-03
vertex -1.7879000E-02 -2.1210001E-03 -6.2000002E-03
endloop
endfacet
facet normal 0.0000000E+00 0.0000000E+00 -9.9999994E-01
outer loop
vertex -1.4142000E-02 -1.1142000E-02 -6.2000002E-03
vertex -1.7879000E-02 -2.1210001E-03 -6.2000002E-03
vertex -1.2500000E-02 -8.7188728E-17 -6.2000002E-03
endloop
endfacet
facet normal -0.0000000E+00 0.0000000E+00 -9.9999994E-01
outer loop
vertex -8.8390000E-03 -8.8390000E-03 -6.2000002E-03
vertex -1.4142000E-02 -1.1142000E-02 -6.2000002E-03
vertex -1.2500000E-02 -8.7188728E-17 -6.2000002E-03
endloop
endfacet
facet normal 0.0000000E+00 0.0000000E+00 -1.0000000E+00
outer loop
vertex -8.8390000E-03 -8.8390000E-03 -6.2000002E-03
vertex -1.2021000E-02 -1.2021000E-02 -6.2000002E-03
vertex -1.4142000E-02 -1.1142000E-02 -6.2000002E-03
endloop
endfacet
facet normal 0.0000000E+00 0.0000000E+00 -1.0000000E+00
outer loop
vertex -8.8390000E-03 -8.8390000E-03 -6.2000002E-03
vertex -1.1142000E-02 -1.4142000E-02 -6.2000002E-03
vertex -1.2021000E-02 -1.2021000E-02 -6.2000002E-03
endloop
endfacet
facet normal 0.0000000E+00 -0.0000000E+00 -9.9999994E-01
outer loop
vertex -8.8390000E-03 -8.8390000E-03 -6.2000002E-03
vertex 0.0000000E+00 -1.2500000E-02 -6.2000002E-03
vertex -1.1142000E-02 -1.4142000E-02 -6.2000002E-03
endloop
endfacet
facet normal 0.0000000E+00 -0.0000000E+00 -1.0000000E+00
outer loop
vertex -1.1142000E-02 -1.4142000E-02 -6.2000002E-03
vertex 0.0000000E+00 -1.2500000E-02 -6.2000002E-03
vertex -1.2021000E-02 -1.6263001E-02 -6.2000002E-03
endloop
endfacet
facet normal 0.0000000E+00 0.0000000E+00 -1.0000000E+00
outer loop
vertex -1.2021000E-02 -1.6263001E-02 -6.2000002E-03
vertex 0.0000000E+00 -1.2500000E-02 -6.2000002E-03
vertex 0.0000000E+00 -2.5000000E-02 -6.2000002E-03
endloop
endfacet
facet normal 0.0000000E+00 -0.0000000E+00 -1.0000000E+00
outer loop
vertex -1.4142000E-02 -1.7142000E-02 -6.2000002E-03
vertex 0.0000000E+00 -2.5000000E-02 -6.2000002E-03
vertex -1.7678000E-02 -1.7678000E-02 -6.2000002E-03
endloop
endfacet
facet normal 0.0000000E+00 -0.0000000E+00 -1.0000000E+00
outer loop
vertex -1.6263001E-02 -1.6263001E-02 -6.2000002E-03
vertex -1.4142000E-02 -1.7142000E-02 -6.2000002E-03
vertex -1.7678000E-02 -1.7678000E-02 -6.2000002E-03
endloop
endfacet
facet normal 0.0000000E+00 0.0000000E+00 -1.0000000E+00
outer loop
vertex -1.7879000E-02 -2.1210001E-03 -6.2000002E-03
vertex -1.7000001E-02 -8.6913184E-17 -6.2000002E-03
vertex -1.2500000E-02 -8.7188728E-17 -6.2000002E-03
endloop
endfacet
facet normal 0.0000000E+00 0.0000000E+00 -1.0000000E+00
outer loop
vertex -1.2500000E-02 -8.7188728E-17 -6.2000002E-03
vertex -1.7000001E-02 -8.6913184E-17 -6.2000002E-03
vertex -1.7879000E-02 2.1210001E-03 -6.2000002E-03
endloop
endfacet
facet normal 0.0000000E+00 0.0000000E+00 -1.0000000E+00
outer loop
vertex -1.4142000E-02 -1.7142000E-02 -6.2000002E-03
vertex -1.2021000E-02 -1.6263001E-02 -6.2000002E-03
vertex 0.0000000E+00 -2.5000000E-02 -6.2000002E-03
endloop
endfacet
facet normal -0.0000000E+00 0.0000000E+00 -1.0000000E+00
outer loop
vertex -1.4142000E-02 -1.1142000E-02 -6.2000002E-03
vertex -1.6263001E-02 -1.2021000E-02 -6.2000002E-03
vertex -1.7879000E-02 -2.1210001E-03 -6.2000002E-03
endloop
endfacet
facet normal -0.0000000E+00 0.0000000E+00 -1.0000000E+00
outer loop
vertex -1.6263001E-02 -1.2021000E-02 -6.2000002E-03
vertex -1.7142000E-02 -1.4142000E-02 -6.2000002E-03
vertex -2.0000000E-02 -3.0000000E-03 -6.2000002E-03
endloop
endfacet
facet normal 0.0000000E+00 0.0000000E+00 -1.0000000E+00
outer loop
vertex 1.4142000E-02 1.1142000E-02 -6.2000002E-03
vertex 1.6263001E-02 1.2021000E-02 -6.2000002E-03
vertex 1.7879000E-02 2.1210001E-03 -6.2000002E-03
endloop
endfacet
facet normal 0.0000000E+00 0.0000000E+00 -9.9999994E-01
outer loop
vertex 1.7879000E-02 2.1210001E-03 -6.2000002E-03
vertex 1.6263001E-02 1.2021000E-02 -6.2000002E-03
vertex 2.0000000E-02 3.0000000E-03 -6.2000002E-03
endloop
endfacet
facet normal 0.0000000E+00 0.0000000E+00 -1.0000000E+00
outer loop
vertex 2.0000000E-02 3.0000000E-03 -6.2000002E-03
vertex 1.6263001E-02 1.2021000E-02 -6.2000002E-03
vertex 1.7142000E-02 1.4142000E-02 -6.2000002E-03
endloop
endfacet
facet normal 0.0000000E+00 0.0000000E+00 -1.0000000E+00
outer loop
vertex 2.2120999E-02 2.1210001E-03 -6.2000002E-03
vertex 1.7142000E-02 1.4142000E-02 -6.2000002E-03
vertex 1.7678000E-02 1.7678000E-02 -6.2000002E-03
endloop
endfacet
facet normal 0.0000000E+00 0.0000000E+00 -1.0000000E+00
outer loop
vertex 2.2120999E-02 2.1210001E-03 -6.2000002E-03
vertex 2.0000000E-02 3.0000000E-03 -6.2000002E-03
vertex 1.7142000E-02 1.4142000E-02 -6.2000002E-03
endloop
endfacet
facet normal -0.0000000E+00 0.0000000E+00 -1.0000000E+00
outer loop
vertex 1.4142000E-02 1.7142000E-02 -6.2000002E-03
vertex 1.2021000E-02 1.6263001E-02 -6.2000002E-03
vertex 0.0000000E+00 2.5000000E-02 -6.2000002E-03
endloop
endfacet
facet normal 0.0000000E+00 0.0000000E+00 -1.0000000E+00
outer loop
vertex 1.2021000E-02 1.6263001E-02 -6.2000002E-03
vertex 1.1142000E-02 1.4142000E-02 -6.2000002E-03
vertex 0.0000000E+00 1.2500000E-02 -6.2000002E-03
endloop
endfacet
facet normal 0.0000000E+00 -0.0000000E+00 -9.9999994E-01
outer loop
vertex 1.7879000E-02 -2.1210001E-03 -6.2000002E-03
vertex 2.0000000E-02 -3.0000000E-03 -6.2000002E-03
vertex 1.6263001E-02 -1.2021000E-02 -6.2000002E-03
endloop
endfacet
facet normal 0.0000000E+00 -0.0000000E+00 -1.0000000E+00
outer loop
vertex 2.0000000E-02 -3.0000000E-03 -6.2000002E-03
vertex 2.2120999E-02 -2.1210001E-03 -6.2000002E-03
vertex 1.7142000E-02 -1.4142000E-02 -6.2000002E-03
endloop
endfacet
facet normal 0.0000000E+00 0.0000000E+00 -9.9999994E-01
outer loop
vertex 0.0000000E+00 -1.2500000E-02 -6.2000002E-03
vertex 8.8390000E-03 -8.8390000E-03 -6.2000002E-03
vertex 1.1142000E-02 -1.4142000E-02 -6.2000002E-03
endloop
endfacet
facet normal 0.0000000E+00 0.0000000E+00 -1.0000000E+00
outer loop
vertex -2.0000000E-02 3.0000000E-03 -6.2000002E-03
vertex -1.7142000E-02 1.4142000E-02 -6.2000002E-03
vertex -1.6263001E-02 1.2021000E-02 -6.2000002E-03
endloop
endfacet
facet normal 0.0000000E+00 0.0000000E+00 -1.0000000E+00
outer loop
vertex 0.0000000E+00 -2.5000000E-02 -6.2000002E-03
vertex 0.0000000E+00 -1.2500000E-02 -6.2000002E-03
vertex 1.2021000E-02 -1.6263001E-02 -6.2000002E-03
endloop
endfacet
facet normal 0.0000000E+00 0.0000000E+00 -1.0000000E+00
outer loop
vertex 0.0000000E+00 -2.5000000E-02 -6.2000002E-03
vertex 1.4142000E-02 -1.7142000E-02 -6.2000002E-03
vertex 1.7678000E-02 -1.7678000E-02 -6.2000002E-03
endloop
endfacet
facet normal -9.2380995E-01 -3.8285139E-01 -0.0000000E+00
outer loop
vertex 1.6263001E-02 1.6263001E-02 0.0000000E+00
vertex 1.6263001E-02 1.6263001E-02 -6.2000002E-03
vertex 1.7142000E-02 1.4142000E-02 0.0000000E+00
endloop
endfacet
facet normal -3.8285139E-01 -9.2380995E-01 -0.0000000E+00
outer loop
vertex 1.6263001E-02 1.6263001E-02 0.0000000E+00
vertex 1.4142000E-02 1.7142000E-02 -6.2000002E-03
vertex 1.6263001E-02 1.6263001E-02 -6.2000002E-03
endloop
endfacet
facet normal -3.8285139E-01 -9.2380995E-01 0.0000000E+00
outer loop
vertex 1.6263001E-02 1.6263001E-02 0.0000000E+00
vertex 1.4142000E-02 1.7142000E-02 0.0000000E+00
vertex 1.4142000E-02 1.7142000E-02 -6.2000002E-03
endloop
endfacet
facet normal 3.8285139E-01 -9.2380995E-01 0.0000000E+00
outer loop
vertex 1.4142000E-02 1.7142000E-02 -6.2000002E-03
vertex 1.4142000E-02 1.7142000E-02 0.0000000E+00
vertex 1.2021000E-02 1.6263001E-02 -6.2000002E-03
endloop
endfacet
facet normal 3.8285139E-01 -9.2380995E-01 0.0000000E+00
outer loop
vertex 1.2021000E-02 1.6263001E-02 -6.2000002E-03
vertex 1.4142000E-02 1.7142000E-02 0.0000000E+00
vertex 1.2021000E-02 1.6263001E-02 0.0000000E+00
endloop
endfacet
facet normal 9.2380983E-01 -3.8285175E-01 0.0000000E+00
outer loop
vertex 1.1142000E-02 1.4142000E-02 -6.2000002E-03
vertex 1.2021000E-02 1.6263001E-02 0.0000000E+00
vertex 1.1142000E-02 1.4142000E-02 0.0000000E+00
endloop
endfacet
facet normal 9.2380983E-01 3.8285175E-01 -0.0000000E+00
outer loop
vertex 1.2021000E-02 1.2021000E-02 -6.2000002E-03
vertex 1.1142000E-02 1.4142000E-02 0.0000000E+00
vertex 1.2021000E-02 1.2021000E-02 0.0000000E+00
endloop
endfacet
facet normal 3.8285175E-01 9.2380983E-01 -0.0000000E+00
outer loop
vertex 1.4142000E-02 1.1142000E-02 -6.2000002E-03
vertex 1.2021000E-02 1.2021000E-02 0.0000000E+00
vertex 1.4142000E-02 1.1142000E-02 0.0000000E+00
endloop
endfacet
facet normal -3.8285175E-01 9.2380983E-01 0.0000000E+00
outer loop
vertex 1.6263001E-02 1.2021000E-02 -6.2000002E-03
vertex 1.4142000E-02 1.1142000E-02 0.0000000E+00
vertex 1.6263001E-02 1.2021000E-02 0.0000000E+00
endloop
endfacet
facet normal -9.2380995E-01 3.8285139E-01 0.0000000E+00
outer loop
vertex 1.7142000E-02 1.4142000E-02 -6.2000002E-03
vertex 1.6263001E-02 1.2021000E-02 0.0000000E+00
vertex 1.7142000E-02 1.4142000E-02 0.0000000E+00
endloop
endfacet
facet normal -9.2380995E-01 -3.8285139E-01 0.0000000E+00
outer loop
vertex 1.6263001E-02 1.6263001E-02 -6.2000002E-03
vertex 1.7142000E-02 1.4142000E-02 -6.2000002E-03
vertex 1.7142000E-02 1.4142000E-02 0.0000000E+00
endloop
endfacet
facet normal 9.2380983E-01 -3.8285175E-01 0.0000000E+00
outer loop
vertex 1.1142000E-02 1.4142000E-02 -6.2000002E-03
vertex 1.2021000E-02 1.6263001E-02 -6.2000002E-03
vertex 1.2021000E-02 1.6263001E-02 0.0000000E+00
endloop
endfacet
facet normal -9.2380995E-01 3.8285139E-01 0.0000000E+00
outer loop
vertex 1.7142000E-02 1.4142000E-02 -6.2000002E-03
vertex 1.6263001E-02 1.2021000E-02 -6.2000002E-03
vertex 1.6263001E-02 1.2021000E-02 0.0000000E+00
endloop
endfacet
facet normal -3.8285175E-01 9.2380983E-01 0.0000000E+00
outer loop
vertex 1.6263001E-02 1.2021000E-02 -6.2000002E-03
vertex 1.4142000E-02 1.1142000E-02 -6.2000002E-03
vertex 1.4142000E-02 1.1142000E-02 0.0000000E+00
endloop
endfacet
facet normal 3.8285175E-01 9.2380983E-01 0.0000000E+00
outer loop
vertex 1.4142000E-02 1.1142000E-02 -6.2000002E-03
vertex 1.2021000E-02 1.2021000E-02 -6.2000002E-03
vertex 1.2021000E-02 1.2021000E-02 0.0000000E+00
endloop
endfacet
facet normal 9.2380983E-01 3.8285175E-01 0.0000000E+00
outer loop
vertex 1.2021000E-02 1.2021000E-02 -6.2000002E-03
vertex 1.1142000E-02 1.4142000E-02 -6.2000002E-03
vertex 1.1142000E-02 1.4142000E-02 0.0000000E+00
endloop
endfacet
facet normal -9.2380995E-01 -3.8285139E-01 -0.0000000E+00
outer loop
vertex 1.6263001E-02 -1.2021000E-02 0.0000000E+00
vertex 1.6263001E-02 -1.2021000E-02 -6.2000002E-03
vertex 1.7142000E-02 -1.4142000E-02 0.0000000E+00
endloop
endfacet
facet normal -3.8285175E-01 -9.2380983E-01 -0.0000000E+00
outer loop
vertex 1.6263001E-02 -1.2021000E-02 0.0000000E+00
vertex 1.4142000E-02 -1.1142000E-02 -6.2000002E-03
vertex 1.6263001E-02 -1.2021000E-02 -6.2000002E-03
endloop
endfacet
facet normal -3.8285175E-01 -9.2380983E-01 0.0000000E+00
outer loop
vertex 1.6263001E-02 -1.2021000E-02 0.0000000E+00
vertex 1.4142000E-02 -1.1142000E-02 0.0000000E+00
vertex 1.4142000E-02 -1.1142000E-02 -6.2000002E-03
endloop
endfacet
facet normal 3.8285175E-01 -9.2380983E-01 0.0000000E+00
outer loop
vertex 1.4142000E-02 -1.1142000E-02 -6.2000002E-03
vertex 1.4142000E-02 -1.1142000E-02 0.0000000E+00
vertex 1.2021000E-02 -1.2021000E-02 -6.2000002E-03
endloop
endfacet
facet normal 3.8285175E-01 -9.2380983E-01 0.0000000E+00
outer loop
vertex 1.2021000E-02 -1.2021000E-02 -6.2000002E-03
vertex 1.4142000E-02 -1.1142000E-02 0.0000000E+00
vertex 1.2021000E-02 -1.2021000E-02 0.0000000E+00
endloop
endfacet
facet normal 9.2380983E-01 -3.8285175E-01 0.0000000E+00
outer loop
vertex 1.1142000E-02 -1.4142000E-02 -6.2000002E-03
vertex 1.2021000E-02 -1.2021000E-02 0.0000000E+00
vertex 1.1142000E-02 -1.4142000E-02 0.0000000E+00
endloop
endfacet
facet normal 9.2380983E-01 3.8285175E-01 -0.0000000E+00
outer loop
vertex 1.2021000E-02 -1.6263001E-02 -6.2000002E-03
vertex 1.1142000E-02 -1.4142000E-02 0.0000000E+00
vertex 1.2021000E-02 -1.6263001E-02 0.0000000E+00
endloop
endfacet
facet normal 3.8285139E-01 9.2380995E-01 -0.0000000E+00
outer loop
vertex 1.4142000E-02 -1.7142000E-02 -6.2000002E-03
vertex 1.2021000E-02 -1.6263001E-02 0.0000000E+00
vertex 1.4142000E-02 -1.7142000E-02 0.0000000E+00
endloop
endfacet
facet normal -3.8285139E-01 9.2380995E-01 0.0000000E+00
outer loop
vertex 1.6263001E-02 -1.6263001E-02 -6.2000002E-03
vertex 1.4142000E-02 -1.7142000E-02 0.0000000E+00
vertex 1.6263001E-02 -1.6263001E-02 0.0000000E+00
endloop
endfacet
facet normal -9.2380995E-01 3.8285139E-01 0.0000000E+00
outer loop
vertex 1.7142000E-02 -1.4142000E-02 -6.2000002E-03
vertex 1.6263001E-02 -1.6263001E-02 0.0000000E+00
vertex 1.7142000E-02 -1.4142000E-02 0.0000000E+00
endloop
endfacet
facet normal -9.2380995E-01 -3.8285139E-01 0.0000000E+00
outer loop
vertex 1.6263001E-02 -1.2021000E-02 -6.2000002E-03
vertex 1.7142000E-02 -1.4142000E-02 -6.2000002E-03
vertex 1.7142000E-02 -1.4142000E-02 0.0000000E+00
endloop
endfacet
facet normal 9.2380983E-01 -3.8285175E-01 0.0000000E+00
outer loop
vertex 1.1142000E-02 -1.4142000E-02 -6.2000002E-03
vertex 1.2021000E-02 -1.2021000E-02 -6.2000002E-03
vertex 1.2021000E-02 -1.2021000E-02 0.0000000E+00
endloop
endfacet
facet normal -9.2380995E-01 3.8285139E-01 0.0000000E+00
outer loop
vertex 1.7142000E-02 -1.4142000E-02 -6.2000002E-03
vertex 1.6263001E-02 -1.6263001E-02 -6.2000002E-03
vertex 1.6263001E-02 -1.6263001E-02 0.0000000E+00
endloop
endfacet
facet normal -3.8285139E-01 9.2380995E-01 0.0000000E+00
outer loop
vertex 1.6263001E-02 -1.6263001E-02 -6.2000002E-03
vertex 1.4142000E-02 -1.7142000E-02 -6.2000002E-03
vertex 1.4142000E-02 -1.7142000E-02 0.0000000E+00
endloop
endfacet
facet normal 3.8285139E-01 9.2380995E-01 0.0000000E+00
outer loop
vertex 1.4142000E-02 -1.7142000E-02 -6.2000002E-03
vertex 1.2021000E-02 -1.6263001E-02 -6.2000002E-03
vertex 1.2021000E-02 -1.6263001E-02 0.0000000E+00
endloop
endfacet
facet normal 9.2380983E-01 3.8285175E-01 0.0000000E+00
outer loop
vertex 1.2021000E-02 -1.6263001E-02 -6.2000002E-03
vertex 1.1142000E-02 -1.4142000E-02 -6.2000002E-03
vertex 1.1142000E-02 -1.4142000E-02 0.0000000E+00
endloop
endfacet
facet normal -9.2380983E-01 -3.8285175E-01 -0.0000000E+00
outer loop
vertex -1.2021000E-02 -1.2021000E-02 0.0000000E+00
vertex -1.2021000E-02 -1.2021000E-02 -6.2000002E-03
vertex -1.1142000E-02 -1.4142000E-02 0.0000000E+00
endloop
endfacet
facet normal -3.8285175E-01 -9.2380983E-01 -0.0000000E+00
outer loop
vertex -1.2021000E-02 -1.2021000E-02 0.0000000E+00
vertex -1.4142000E-02 -1.1142000E-02 -6.2000002E-03
vertex -1.2021000E-02 -1.2021000E-02 -6.2000002E-03
endloop
endfacet
facet normal -3.8285175E-01 -9.2380983E-01 0.0000000E+00
outer loop
vertex -1.2021000E-02 -1.2021000E-02 0.0000000E+00
vertex -1.4142000E-02 -1.1142000E-02 0.0000000E+00
vertex -1.4142000E-02 -1.1142000E-02 -6.2000002E-03
endloop
endfacet
facet normal 3.8285175E-01 -9.2380983E-01 0.0000000E+00
outer loop
vertex -1.4142000E-02 -1.1142000E-02 -6.2000002E-03
vertex -1.4142000E-02 -1.1142000E-02 0.0000000E+00
vertex -1.6263001E-02 -1.2021000E-02 -6.2000002E-03
endloop
endfacet
facet normal 3.8285175E-01 -9.2380983E-01 0.0000000E+00
outer loop
vertex -1.6263001E-02 -1.2021000E-02 -6.2000002E-03
vertex -1.4142000E-02 -1.1142000E-02 0.0000000E+00
vertex -1.6263001E-02 -1.2021000E-02 0.0000000E+00
endloop
endfacet
facet normal 9.2380995E-01 -3.8285139E-01 0.0000000E+00
outer loop
vertex -1.7142000E-02 -1.4142000E-02 -6.2000002E-03
vertex -1.6263001E-02 -1.2021000E-02 0.0000000E+00
vertex -1.7142000E-02 -1.4142000E-02 0.0000000E+00
endloop
endfacet
facet normal 9.2380995E-01 3.8285139E-01 -0.0000000E+00
outer loop
vertex -1.6263001E-02 -1.6263001E-02 -6.2000002E-03
vertex -1.7142000E-02 -1.4142000E-02 0.0000000E+00
vertex -1.6263001E-02 -1.6263001E-02 0.0000000E+00
endloop
endfacet
facet normal 3.8285139E-01 9.2380995E-01 -0.0000000E+00
outer loop
vertex -1.4142000E-02 -1.7142000E-02 -6.2000002E-03
vertex -1.6263001E-02 -1.6263001E-02 0.0000000E+00
vertex -1.4142000E-02 -1.7142000E-02 0.0000000E+00
endloop
endfacet
facet normal -3.8285139E-01 9.2380995E-01 0.0000000E+00
outer loop
vertex -1.2021000E-02 -1.6263001E-02 -6.2000002E-03
vertex -1.4142000E-02 -1.7142000E-02 0.0000000E+00
vertex -1.2021000E-02 -1.6263001E-02 0.0000000E+00
endloop
endfacet
facet normal -9.2380983E-01 3.8285175E-01 0.0000000E+00
outer loop
vertex -1.1142000E-02 -1.4142000E-02 -6.2000002E-03
vertex -1.2021000E-02 -1.6263001E-02 0.0000000E+00
vertex -1.1142000E-02 -1.4142000E-02 0.0000000E+00
endloop
endfacet
facet normal -9.2380983E-01 -3.8285175E-01 0.0000000E+00
outer loop
vertex -1.2021000E-02 -1.2021000E-02 -6.2000002E-03
vertex -1.1142000E-02 -1.4142000E-02 -6.2000002E-03
vertex -1.1142000E-02 -1.4142000E-02 0.0000000E+00
endloop
endfacet
facet normal 9.2380995E-01 -3.8285139E-01 0.0000000E+00
outer loop
vertex -1.7142000E-02 -1.4142000E-02 -6.2000002E-03
vertex -1.6263001E-02 -1.2021000E-02 -6.2000002E-03
vertex -1.6263001E-02 -1.2021000E-02 0.0000000E+00
endloop
endfacet
facet normal -9.2380983E-01 3.8285175E-01 0.0000000E+00
outer loop
vertex -1.1142000E-02 -1.4142000E-02 -6.2000002E-03
vertex -1.2021000E-02 -1.6263001E-02 -6.2000002E-03
vertex -1.2021000E-02 -1.6263001E-02 0.0000000E+00
endloop
endfacet
facet normal -3.8285139E-01 9.2380995E-01 0.0000000E+00
outer loop
vertex -1.2021000E-02 -1.6263001E-02 -6.2000002E-03
vertex -1.4142000E-02 -1.7142000E-02 -6.2000002E-03
vertex -1.4142000E-02 -1.7142000E-02 0.0000000E+00
endloop
endfacet
facet normal 3.8285139E-01 9.2380995E-01 0.0000000E+00
outer loop
vertex -1.4142000E-02 -1.7142000E-02 -6.2000002E-03
vertex -1.6263001E-02 -1.6263001E-02 -6.2000002E-03
vertex -1.6263001E-02 -1.6263001E-02 0.0000000E+00
endloop
endfacet
facet normal 9.2380995E-01 3.8285139E-01 0.0000000E+00
outer loop
vertex -1.6263001E-02 -1.6263001E-02 -6.2000002E-03
vertex -1.7142000E-02 -1.4142000E-02 -6.2000002E-03
vertex -1.7142000E-02 -1.4142000E-02 0.0000000E+00
endloop
endfacet
facet normal -9.2380983E-01 -3.8285145E-01 -0.0000000E+00
outer loop
vertex -1.7879000E-02 2.1210001E-03 0.0000000E+00
vertex -1.7879000E-02 2.1210001E-03 -6.2000002E-03
vertex -1.7000001E-02 -8.8052106E-17 0.0000000E+00
endloop
endfacet
facet normal -3.8285187E-01 -9.2380977E-01 -0.0000000E+00
outer loop
vertex -1.7879000E-02 2.1210001E-03 0.0000000E+00
vertex -2.0000000E-02 3.0000000E-03 -6.2000002E-03
vertex -1.7879000E-02 2.1210001E-03 -6.2000002E-03
endloop
endfacet
facet normal -3.8285187E-01 -9.2380977E-01 0.0000000E+00
outer loop
vertex -1.7879000E-02 2.1210001E-03 0.0000000E+00
vertex -2.0000000E-02 3.0000000E-03 0.0000000E+00
vertex -2.0000000E-02 3.0000000E-03 -6.2000002E-03
endloop
endfacet
facet normal 3.8285187E-01 -9.2380977E-01 0.0000000E+00
outer loop
vertex -2.0000000E-02 3.0000000E-03 -6.2000002E-03
vertex -2.0000000E-02 3.0000000E-03 0.0000000E+00
vertex -2.2120999E-02 2.1210001E-03 -6.2000002E-03
endloop
endfacet
facet normal 3.8285187E-01 -9.2380977E-01 0.0000000E+00
outer loop
vertex -2.2120999E-02 2.1210001E-03 -6.2000002E-03
vertex -2.0000000E-02 3.0000000E-03 0.0000000E+00
vertex -2.2120999E-02 2.1210001E-03 0.0000000E+00
endloop
endfacet
facet normal 9.2380965E-01 -3.8285217E-01 -7.0328821E-17
outer loop
vertex -2.3000000E-02 -8.6545790E-17 -6.2000002E-03
vertex -2.2120999E-02 2.1210001E-03 0.0000000E+00
vertex -2.3000000E-02 -8.7684712E-17 0.0000000E+00
endloop
endfacet
facet normal 9.2380965E-01 3.8285217E-01 -0.0000000E+00
outer loop
vertex -2.2120999E-02 -2.1210001E-03 -6.2000002E-03
vertex -2.3000000E-02 -8.7684712E-17 0.0000000E+00
vertex -2.2120999E-02 -2.1210001E-03 0.0000000E+00
endloop
endfacet
facet normal 3.8285187E-01 9.2380977E-01 -0.0000000E+00
outer loop
vertex -2.0000000E-02 -3.0000000E-03 -6.2000002E-03
vertex -2.2120999E-02 -2.1210001E-03 0.0000000E+00
vertex -2.0000000E-02 -3.0000000E-03 0.0000000E+00
endloop
endfacet
facet normal -3.8285187E-01 9.2380977E-01 0.0000000E+00
outer loop
vertex -1.7879000E-02 -2.1210001E-03 -6.2000002E-03
vertex -2.0000000E-02 -3.0000000E-03 0.0000000E+00
vertex -1.7879000E-02 -2.1210001E-03 0.0000000E+00
endloop
endfacet
facet normal -9.2380983E-01 3.8285145E-01 7.0328689E-17
outer loop
vertex -1.7000001E-02 -8.6913184E-17 -6.2000002E-03
vertex -1.7879000E-02 -2.1210001E-03 0.0000000E+00
vertex -1.7000001E-02 -8.8052106E-17 0.0000000E+00
endloop
endfacet
facet normal -9.2380983E-01 -3.8285145E-01 0.0000000E+00
outer loop
vertex -1.7879000E-02 2.1210001E-03 -6.2000002E-03
vertex -1.7000001E-02 -8.6913184E-17 -6.2000002E-03
vertex -1.7000001E-02 -8.8052106E-17 0.0000000E+00
endloop
endfacet
facet normal 9.2380965E-01 -3.8285217E-01 0.0000000E+00
outer loop
vertex -2.3000000E-02 -8.6545790E-17 -6.2000002E-03
vertex -2.2120999E-02 2.1210001E-03 -6.2000002E-03
vertex -2.2120999E-02 2.1210001E-03 0.0000000E+00
endloop
endfacet
facet normal -9.2380983E-01 3.8285145E-01 0.0000000E+00
outer loop
vertex -1.7000001E-02 -8.6913184E-17 -6.2000002E-03
vertex -1.7879000E-02 -2.1210001E-03 -6.2000002E-03
vertex -1.7879000E-02 -2.1210001E-03 0.0000000E+00
endloop
endfacet
facet normal -3.8285187E-01 9.2380977E-01 0.0000000E+00
outer loop
vertex -1.7879000E-02 -2.1210001E-03 -6.2000002E-03
vertex -2.0000000E-02 -3.0000000E-03 -6.2000002E-03
vertex -2.0000000E-02 -3.0000000E-03 0.0000000E+00
endloop
endfacet
facet normal 3.8285187E-01 9.2380977E-01 0.0000000E+00
outer loop
vertex -2.0000000E-02 -3.0000000E-03 -6.2000002E-03
vertex -2.2120999E-02 -2.1210001E-03 -6.2000002E-03
vertex -2.2120999E-02 -2.1210001E-03 0.0000000E+00
endloop
endfacet
facet normal 9.2380965E-01 3.8285217E-01 0.0000000E+00
outer loop
vertex -2.2120999E-02 -2.1210001E-03 -6.2000002E-03
vertex -2.3000000E-02 -8.6545790E-17 -6.2000002E-03
vertex -2.3000000E-02 -8.7684712E-17 0.0000000E+00
endloop
endfacet
facet normal -9.2380983E-01 -3.8285175E-01 -0.0000000E+00
outer loop
vertex -1.2021000E-02 1.6263001E-02 0.0000000E+00
vertex -1.2021000E-02 1.6263001E-02 -6.2000002E-03
vertex -1.1142000E-02 1.4142000E-02 0.0000000E+00
endloop
endfacet
facet normal -3.8285139E-01 -9.2380995E-01 -0.0000000E+00
outer loop
vertex -1.2021000E-02 1.6263001E-02 0.0000000E+00
vertex -1.4142000E-02 1.7142000E-02 -6.2000002E-03
vertex -1.2021000E-02 1.6263001E-02 -6.2000002E-03
endloop
endfacet
facet normal -3.8285139E-01 -9.2380995E-01 0.0000000E+00
outer loop
vertex -1.2021000E-02 1.6263001E-02 0.0000000E+00
vertex -1.4142000E-02 1.7142000E-02 0.0000000E+00
vertex -1.4142000E-02 1.7142000E-02 -6.2000002E-03
endloop
endfacet
facet normal 3.8285139E-01 -9.2380995E-01 0.0000000E+00
outer loop
vertex -1.4142000E-02 1.7142000E-02 -6.2000002E-03
vertex -1.4142000E-02 1.7142000E-02 0.0000000E+00
vertex -1.6263001E-02 1.6263001E-02 -6.2000002E-03
endloop
endfacet
facet normal 3.8285139E-01 -9.2380995E-01 0.0000000E+00
outer loop
vertex -1.6263001E-02 1.6263001E-02 -6.2000002E-03
vertex -1.4142000E-02 1.7142000E-02 0.0000000E+00
vertex -1.6263001E-02 1.6263001E-02 0.0000000E+00
endloop
endfacet
facet normal 9.2380995E-01 -3.8285139E-01 0.0000000E+00
outer loop
vertex -1.7142000E-02 1.4142000E-02 -6.2000002E-03
vertex -1.6263001E-02 1.6263001E-02 0.0000000E+00
vertex -1.7142000E-02 1.4142000E-02 0.0000000E+00
endloop
endfacet
facet normal 9.2380995E-01 3.8285139E-01 -0.0000000E+00
outer loop
vertex -1.6263001E-02 1.2021000E-02 -6.2000002E-03
vertex -1.7142000E-02 1.4142000E-02 0.0000000E+00
vertex -1.6263001E-02 1.2021000E-02 0.0000000E+00
endloop
endfacet
facet normal 3.8285175E-01 9.2380983E-01 -0.0000000E+00
outer loop
vertex -1.4142000E-02 1.1142000E-02 -6.2000002E-03
vertex -1.6263001E-02 1.2021000E-02 0.0000000E+00
vertex -1.4142000E-02 1.1142000E-02 0.0000000E+00
endloop
endfacet
facet normal -3.8285175E-01 9.2380983E-01 0.0000000E+00
outer loop
vertex -1.2021000E-02 1.2021000E-02 -6.2000002E-03
vertex -1.4142000E-02 1.1142000E-02 0.0000000E+00
vertex -1.2021000E-02 1.2021000E-02 0.0000000E+00
endloop
endfacet
facet normal -9.2380983E-01 3.8285175E-01 0.0000000E+00
outer loop
vertex -1.1142000E-02 1.4142000E-02 -6.2000002E-03
vertex -1.2021000E-02 1.2021000E-02 0.0000000E+00
vertex -1.1142000E-02 1.4142000E-02 0.0000000E+00
endloop
endfacet
facet normal -9.2380983E-01 -3.8285175E-01 0.0000000E+00
outer loop
vertex -1.2021000E-02 1.6263001E-02 -6.2000002E-03
vertex -1.1142000E-02 1.4142000E-02 -6.2000002E-03
vertex -1.1142000E-02 1.4142000E-02 0.0000000E+00
endloop
endfacet
facet normal 9.2380995E-01 -3.8285139E-01 0.0000000E+00
outer loop
vertex -1.7142000E-02 1.4142000E-02 -6.2000002E-03
vertex -1.6263001E-02 1.6263001E-02 -6.2000002E-03
vertex -1.6263001E-02 1.6263001E-02 0.0000000E+00
endloop
endfacet
facet normal -9.2380983E-01 3.8285175E-01 0.0000000E+00
outer loop
vertex -1.1142000E-02 1.4142000E-02 -6.2000002E-03
vertex -1.2021000E-02 1.2021000E-02 -6.2000002E-03
vertex -1.2021000E-02 1.2021000E-02 0.0000000E+00
endloop
endfacet
facet normal -3.8285175E-01 9.2380983E-01 0.0000000E+00
outer loop
vertex -1.2021000E-02 1.2021000E-02 -6.2000002E-03
vertex -1.4142000E-02 1.1142000E-02 -6.2000002E-03
vertex -1.4142000E-02 1.1142000E-02 0.0000000E+00
endloop
endfacet
facet normal 3.8285175E-01 9.2380983E-01 0.0000000E+00
outer loop
vertex -1.4142000E-02 1.1142000E-02 -6.2000002E-03
vertex -1.6263001E-02 1.2021000E-02 -6.2000002E-03
vertex -1.6263001E-02 1.2021000E-02 0.0000000E+00
endloop
endfacet
facet normal 9.2380995E-01 3.8285139E-01 0.0000000E+00
outer loop
vertex -1.6263001E-02 1.2021000E-02 -6.2000002E-03
vertex -1.7142000E-02 1.4142000E-02 -6.2000002E-03
vertex -1.7142000E-02 1.4142000E-02 0.0000000E+00
endloop
endfacet
endsolid Created by stlwrite.m 07-Jan-2012 20:08:50
