# Blender v2.79 (sub 0) OBJ File: ''
# www.blender.org
o fl_hipx08.047
v -0.001600 0.040000 -0.027500
v -0.003500 0.036000 -0.026700
v 0.003300 0.036000 -0.026700
v -0.008000 0.036000 -0.025800
v -0.014100 0.040000 -0.022900
v -0.016100 0.036000 -0.021700
v -0.012200 0.036000 -0.024100
v -0.020900 0.040000 -0.016900
v -0.023500 0.036000 -0.013100
v -0.019500 0.036000 -0.018600
v -0.025300 0.040000 -0.008900
v -0.027400 0.036000 -0.000700
v -0.026900 0.040000 0.000000
v -0.025300 0.040000 0.008900
v -0.023500 0.036000 0.013100
v -0.020900 0.040000 0.016900
v -0.019500 0.036000 0.018600
v -0.016100 0.040000 0.021700
v -0.012200 0.036000 0.024100
v -0.016100 0.036000 0.021700
v -0.012200 0.040000 0.024100
v -0.008000 0.036000 0.025800
v -0.000600 0.040000 0.027500
v -0.003500 0.036000 0.026700
v 0.003300 0.036000 0.026700
v 0.026200 0.036000 -0.021900
v 0.025400 0.040000 -0.022200
v 0.028700 0.040000 -0.020200
v 0.028700 0.036100 -0.020200
v 0.034500 0.040000 -0.005600
v 0.033600 0.036000 -0.009800
v 0.034800 0.036000 0.001500
v 0.032200 0.040000 -0.013900
v 0.033100 0.036000 0.011500
v 0.028600 0.040000 0.020200
v 0.033500 0.040000 0.009900
v 0.027900 0.036000 0.021600
v 0.026000 0.040000 0.022000
v 0.034900 0.040000 0.001800
v 0.037446 -0.039881 0.039888
v 0.036832 -0.027317 0.038946
v 0.038144 -0.026233 0.037700
v 0.004452 -0.000092 0.044014
v -0.004134 -0.040717 0.046801
v -0.005266 0.008172 0.042992
v 0.005365 -0.041710 0.046699
v -0.000523 -0.033904 0.046374
v 0.046504 -0.033912 0.001118
v 0.047771 -0.041706 0.000683
v 0.045120 -0.014302 0.003112
v 0.046769 -0.041709 -0.004932
v 0.044204 -0.014170 -0.009298
v 0.001054 -0.035223 -0.046589
v 0.008853 -0.041700 -0.046139
v 0.004327 0.000107 -0.043980
v -0.003876 -0.041248 -0.046835
v -0.038930 0.035069 0.011413
v -0.044500 0.036500 0.000000
v -0.038325 0.034871 -0.012002
v -0.030507 0.028750 0.025494
v -0.053500 0.032500 0.016600
v -0.053502 0.036421 -0.004011
v -0.053500 0.016877 0.032466
v -0.053500 0.025100 0.026500
v 0.038173 -0.026211 -0.037631
v 0.036822 -0.027360 -0.038966
v -0.053495 -0.018292 0.031832
v -0.053464 -0.031744 0.019749
v -0.053500 0.012700 -0.034200
v -0.053551 0.003613 -0.036486
v -0.004893 0.007620 -0.043222
v 0.020059 -0.007956 -0.037795
v -0.053503 -0.003997 0.036507
v 0.036836 -0.022272 -0.035045
v -0.053500 0.005500 0.036100
v 0.039556 -0.012699 -0.018446
v 0.042400 -0.014400 -0.017100
v 0.039989 -0.040003 -0.037091
v -0.018613 0.019037 -0.036558
v -0.015993 0.018022 -0.034538
v -0.028331 0.026960 -0.028480
v -0.040015 -0.041503 0.037664
v -0.026860 0.026926 -0.022791
v 0.042947 -0.012783 0.000435
v -0.032064 0.031225 -0.007314
v -0.047500 -0.041700 0.023500
v -0.053500 0.035800 0.007300
v -0.037075 -0.041581 0.040034
v 0.003614 0.003528 -0.039224
v 0.039502 -0.041648 0.039661
v 0.036317 -0.041662 -0.040345
v 0.021152 -0.008782 0.037661
v 0.039819 -0.039217 0.037526
v 0.042608 -0.013979 0.016028
v -0.039230 -0.039215 0.038987
v 0.030255 -0.017739 0.037380
v 0.037028 -0.022368 0.034847
v -0.053496 -0.012206 -0.034625
v -0.039541 -0.040317 -0.038711
v -0.037437 -0.040749 -0.039964
v 0.039653 -0.041652 -0.039508
v -0.000615 0.006736 0.038939
v -0.022096 0.021677 0.034402
v 0.039549 -0.012685 0.018523
v -0.024200 0.036100 0.018100
v -0.023300 0.036100 -0.018700
v -0.002500 0.036100 -0.029700
v -0.030380 0.029846 0.015445
v -0.053498 0.022696 -0.028837
v -0.053507 0.032098 -0.017588
v -0.020537 0.021713 0.031097
v -0.047753 -0.041615 -0.000444
v -0.039452 -0.041634 -0.039681
v -0.047500 -0.041700 -0.023500
v -0.053560 -0.036351 -0.000000
v -0.053495 -0.033804 -0.014250
v -0.053504 -0.025050 -0.026743
v 0.028558 0.036018 -0.020619
v 0.004100 0.036100 0.030100
v 0.029000 0.036000 0.020500
v -0.028800 0.036000 -0.002900
v 0.012800 0.027500 0.033000
v -0.001800 0.027400 0.035000
v -0.018300 0.027500 0.030600
v -0.013000 0.027500 -0.033200
v 0.005300 0.027400 -0.034700
v 0.047800 -0.048000 -0.000500
v 0.039700 -0.048000 0.039500
v 0.039500 -0.048000 -0.039700
v 0.000500 -0.041700 -0.047800
v -0.000500 -0.048000 -0.047800
v -0.039700 -0.048000 -0.039500
v -0.047800 -0.048000 0.000500
v -0.039700 -0.041700 0.039500
v -0.039500 -0.048000 0.039700
v -0.000500 -0.041700 0.047800
v 0.000500 -0.048000 0.047800
v 0.034300 0.035900 -0.007500
v 0.038683 -0.037234 -0.038731
v 0.034600 0.035900 0.006400
v 0.018500 0.027400 -0.029800
v 0.030500 -0.060300 0.023400
v 0.034800 -0.058900 0.016400
v 0.030800 -0.053000 0.023600
v 0.037000 -0.053100 0.010200
v 0.038200 -0.053100 -0.003400
v 0.038400 -0.055700 0.001900
v 0.037500 -0.057100 0.008300
v 0.037500 -0.057100 -0.008500
v 0.038500 -0.055600 -0.000400
v 0.034900 -0.058900 -0.016300
v 0.036000 -0.053100 -0.013600
v 0.031500 -0.060300 -0.022100
v 0.030800 -0.053000 -0.023500
v 0.030500 -0.060300 -0.023400
v 0.006500 -0.053100 0.046400
v -0.006500 -0.048100 0.046400
v 0.006500 -0.048100 0.046400
v -0.006500 -0.053100 0.046400
v -0.006500 -0.053100 -0.046400
v 0.006500 -0.053100 -0.046400
v -0.000500 -0.048100 -0.047700
v 0.046700 -0.056100 0.004600
v 0.047000 -0.055700 -0.002100
v 0.046000 -0.053100 -0.009800
v 0.046400 -0.056600 -0.007200
v 0.047600 -0.048100 -0.000600
v 0.044500 -0.053100 -0.015100
v 0.044000 -0.058200 -0.016300
v 0.041500 -0.053100 -0.022200
v 0.041300 -0.059400 -0.022400
v 0.037300 -0.060300 -0.028600
v 0.038500 -0.060300 -0.027000
v 0.037300 -0.053100 -0.028600
v 0.046000 -0.053100 0.009800
v 0.044500 -0.058000 0.015000
v 0.044500 -0.053100 0.015100
v 0.041500 -0.053100 0.022200
v 0.039900 -0.059800 0.024700
v 0.037300 -0.053100 0.028600
v 0.037300 -0.060300 0.028600
v 0.040000 -0.053100 0.037100
v 0.036100 -0.053100 0.040400
v 0.040400 -0.053100 -0.036100
v 0.037100 -0.053100 -0.040000
v -0.039600 -0.053100 0.039400
v -0.039400 -0.053100 -0.039600
v -0.047700 -0.053100 -0.000500
v 0.039600 -0.048100 0.039400
v 0.039400 -0.048100 -0.039600
v -0.038100 -0.048100 -0.039600
v -0.040400 -0.048100 -0.036100
v -0.036100 -0.048100 -0.040400
v -0.047700 -0.048100 0.000500
v -0.040400 -0.048100 0.036100
v -0.039600 -0.048100 0.038100
v -0.036100 -0.048100 0.040400
vn 0.0000 -0.1961 -0.9806
vn -0.1951 -0.1024 -0.9754
vn -0.5241 0.0066 -0.8516
vn -0.8083 -0.0331 -0.5878
vn -0.8708 0.1110 -0.4789
vn -0.9478 -0.1135 -0.2981
vn -0.9728 0.1522 -0.1749
vn -0.9801 0.0917 0.1762
vn -0.9520 -0.1459 0.2690
vn -0.8708 0.1110 0.4789
vn -0.8083 -0.0331 0.5878
vn -0.5241 0.0000 0.8517
vn -0.3752 0.0000 0.9269
vn -0.2795 0.1118 0.9536
vn -0.1958 -0.0539 0.9792
vn 0.0000 -0.1961 0.9806
vn 0.2050 -0.0324 -0.9782
vn 0.1925 0.0397 -0.9805
vn 0.5179 0.0395 -0.8545
vn 0.5623 0.0000 -0.8269
vn 0.9881 -0.1121 -0.1049
vn 0.8742 0.0000 -0.4856
vn 0.9617 0.0634 -0.2665
vn 0.8976 -0.1205 -0.4241
vn 0.9000 0.0813 0.4282
vn 0.8891 0.0046 0.4577
vn 0.5594 0.1849 0.8080
vn 0.0000 1.0000 -0.0000
vn 0.9983 -0.0209 -0.0540
vn 0.2045 0.0000 0.9789
vn 0.2015 -0.0004 0.9795
vn 0.2030 0.0021 0.9792
vn 0.9852 -0.0372 0.1675
vn -0.6693 0.1144 -0.7341
vn 0.0000 -1.0000 -0.0000
vn -0.6717 0.0780 0.7367
vn -0.3413 0.1519 -0.9276
vn -0.3733 0.0994 -0.9224
vn 0.6469 0.0884 0.7574
vn 0.6467 0.0880 0.7576
vn 0.6463 0.0888 0.7579
vn -0.0395 0.0767 0.9963
vn 0.0312 0.0650 0.9974
vn 0.4430 0.1216 -0.8883
vn 0.9957 0.0758 -0.0540
vn 0.9941 0.0811 -0.0725
vn 0.1096 0.0631 -0.9920
vn -0.0453 0.0777 -0.9959
vn 0.2520 0.9677 -0.0017
vn -0.0124 0.9095 0.4156
vn 0.0418 0.9927 -0.1133
vn -1.0000 0.0026 -0.0009
vn -1.0000 0.0000 0.0000
vn 0.4554 0.3929 -0.7989
vn -1.0000 -0.0064 0.0027
vn -1.0000 0.0005 -0.0027
vn -0.1526 0.2419 -0.9582
vn 0.5299 0.5197 -0.6702
vn -1.0000 0.0006 -0.0026
vn 0.5842 0.5746 -0.5731
vn -1.0000 0.0004 0.0015
vn 0.5597 0.8144 -0.1534
vn 0.9774 0.0589 -0.2029
vn 0.4973 0.8382 -0.2238
vn -0.1451 0.0735 0.9867
vn 0.2035 0.0675 0.9767
vn -0.6877 -0.2260 0.6899
vn 0.4863 0.8654 -0.1206
vn 0.4286 0.9005 -0.0730
vn 0.6019 0.7977 -0.0359
vn 0.5330 0.8443 -0.0553
vn -0.8323 -0.3312 0.4445
vn -0.8277 -0.3760 0.4165
vn 0.0346 0.9979 0.0548
vn -0.2013 0.0039 0.9795
vn 0.5452 0.7292 -0.4137
vn 0.2005 0.1083 0.9737
vn 0.5411 0.7096 -0.4513
vn 0.2058 0.0727 -0.9759
vn 0.5416 0.6953 0.4725
vn 0.9568 0.1199 0.2649
vn -0.5830 -0.1805 0.7921
vn -0.6407 -0.2076 0.7392
vn 0.4491 0.3839 0.8068
vn 0.5246 0.5083 0.6830
vn 0.5278 0.5168 0.6741
vn 0.5304 0.5179 0.6712
vn 0.6016 0.5795 0.5497
vn 0.5252 0.5129 0.6790
vn -0.5277 -0.1402 -0.8378
vn 0.9751 0.0952 -0.2005
vn 0.9576 0.1158 -0.2638
vn 0.6064 0.6289 -0.4866
vn -0.2005 0.0040 -0.9797
vn 0.5043 0.8132 0.2905
vn 0.5266 0.8028 -0.2796
vn 0.7117 0.5385 0.4511
vn 0.6381 0.6150 0.4633
vn 0.9757 0.0762 0.2054
vn 0.0021 1.0000 0.0004
vn 0.0006 1.0000 0.0016
vn 0.5166 0.8561 0.0137
vn -0.1199 0.4221 0.8986
vn -0.1200 0.7617 -0.6367
vn -1.0000 0.0002 0.0002
vn -0.0991 0.6482 -0.7550
vn -1.0000 0.0003 0.0002
vn 0.4418 0.8937 0.0782
vn 0.5059 0.8592 0.0769
vn 0.4835 0.8695 0.1009
vn 0.5364 0.8382 0.0982
vn -1.0000 -0.0008 0.0007
vn -0.0044 0.9004 -0.4350
vn 0.0337 -0.9994 -0.0039
vn -1.0000 -0.0002 -0.0006
vn 0.0160 -0.9999 0.0039
vn 0.4709 0.8513 0.2314
vn -1.0000 0.0018 -0.0023
vn -0.1383 0.5816 0.8016
vn -1.0000 0.0048 0.0021
vn -0.0879 0.7380 0.6690
vn -0.4759 -0.1044 -0.8733
vn -1.0000 -0.0013 0.0005
vn -0.8445 -0.5265 -0.0980
vn -0.8053 -0.3792 -0.4558
vn -0.8653 0.2580 -0.4298
vn -0.8654 0.2583 -0.4294
vn -0.8658 0.2575 -0.4291
vn -0.8911 -0.3720 -0.2600
vn -0.8707 -0.4780 0.1157
vn -1.0000 0.0012 -0.0043
vn -0.6734 -0.7393 0.0036
vn -0.6714 -0.7411 0.0045
vn -0.6728 -0.7398 -0.0041
vn -1.0000 0.0052 0.0037
vn 0.0006 1.0000 0.0000
vn 0.0036 1.0000 -0.0016
vn 0.0042 1.0000 0.0004
vn -0.0196 0.9998 -0.0005
vn 0.1201 0.4241 0.8976
vn -0.2061 0.5826 0.7862
vn -0.2665 0.7307 0.6285
vn -0.7130 0.3288 0.6193
vn -0.7351 0.6594 0.1579
vn -0.8603 0.5011 0.0940
vn -0.6875 0.6871 -0.2350
vn -0.5305 0.5084 -0.6783
vn -0.3422 0.6812 -0.6471
vn -0.0706 0.4487 -0.8909
vn 0.2202 0.6269 -0.7473
vn 0.9796 -0.0328 0.1984
vn 0.9782 -0.0173 -0.2071
vn 0.2432 0.0235 -0.9697
vn 0.1984 -0.0315 -0.9796
vn -0.1990 0.0316 -0.9795
vn -0.2071 -0.0197 -0.9781
vn -0.9799 -0.0221 -0.1984
vn -0.9794 0.0366 0.1988
vn -0.9747 0.1310 0.1813
vn -0.9780 -0.0245 0.2071
vn -0.2071 0.0245 0.9780
vn -0.1984 -0.0315 0.9796
vn 0.2019 0.0153 0.9793
vn 0.1845 0.0293 0.9824
vn 0.2071 -0.0183 0.9781
vn 0.9555 0.1593 -0.2484
vn 0.9188 0.2548 -0.3015
vn 0.9705 0.1674 -0.1733
vn 0.9740 0.1446 -0.1743
vn -0.2167 0.1750 0.9604
vn -0.2039 0.1750 0.9632
vn -0.2039 0.1779 0.9627
vn -0.2018 0.2233 0.9536
vn -0.2040 0.2348 0.9504
vn -0.2486 0.1680 0.9539
vn -0.2495 0.1675 0.9538
vn -0.2570 0.1711 0.9512
vn 0.9575 0.1578 0.2415
vn 0.2994 0.5098 -0.8065
vn -0.9573 0.2198 0.1878
vn -0.3454 0.5413 -0.7666
vn -0.1961 0.1650 -0.9666
vn -0.1962 0.1650 -0.9666
vn -0.1962 0.1641 -0.9667
vn -0.1968 0.1377 -0.9707
vn -0.1966 0.1371 -0.9709
vn -0.1967 0.1378 -0.9707
vn -0.1918 0.1962 -0.9616
vn 0.1819 0.1774 0.9672
vn 0.1319 0.1929 0.9723
vn 0.1745 0.1649 0.9707
vn 0.1964 0.1693 0.9658
vn -0.0918 0.1917 -0.9772
vn -0.0797 0.1640 -0.9832
vn 0.9769 0.0543 0.2069
vn 0.9768 0.0542 0.2071
vn 0.9767 0.0548 0.2074
vn 0.4124 0.1093 -0.9044
vn 0.9726 0.1445 0.1819
vn 0.1924 0.1644 -0.9674
vn 0.2369 0.2185 -0.9467
vn 0.3390 0.2217 -0.9143
vn 0.3391 0.2217 -0.9143
vn 0.3393 0.2217 -0.9142
vn 0.2016 0.1686 -0.9648
vn 0.5235 0.5227 0.6729
vn 0.4946 0.2710 0.8258
vn 0.4949 0.2710 0.8256
vn 0.4951 0.2702 0.8257
vn 0.4940 0.2706 0.8263
vn 0.2993 0.5627 0.7706
vn 0.9850 0.1715 -0.0213
vn 0.0215 0.9998 -0.0010
vn 0.0185 0.9998 -0.0001
vn 0.0169 0.9999 -0.0004
vn 0.0200 0.9998 0.0002
vn 0.5095 0.2742 -0.8156
vn -0.7931 -0.3182 -0.5194
vn -0.6718 -0.7407 -0.0046
vn -0.7823 0.4804 -0.3965
vn 0.9838 0.0375 -0.1756
vn 0.6919 0.0796 0.7175
vn 0.8484 0.0913 -0.5215
vn -0.0186 0.0723 0.9972
vn -0.0223 0.0733 -0.9971
vn -0.1424 0.0700 -0.9873
vn -0.1512 0.3008 0.9416
vn 0.5374 0.8326 -0.1340
vn -0.1439 0.4679 -0.8720
vn -0.0623 0.9510 -0.3028
vn 0.2224 0.0858 -0.9712
vn 0.9805 0.0530 0.1894
vn 0.5001 0.8660 0.0056
vn -0.0471 0.9414 0.3340
vn -0.1004 0.7969 0.5957
vn -0.6794 0.4142 0.6057
vn 0.9779 0.0252 0.2074
vn 0.9793 0.0185 -0.2015
vn 0.1948 -0.0536 -0.9794
vn 0.2064 0.0041 -0.9785
vn -0.9778 0.0322 -0.2069
vn -0.2525 0.1793 0.9509
vn -0.5822 0.2910 -0.7592
vn -0.8554 0.0493 -0.5156
vn -0.9030 -0.1033 -0.4170
vn -0.9651 -0.2478 -0.0852
vn -0.9873 -0.0521 -0.1502
vn -0.9502 0.0286 -0.3104
vn -0.9927 0.0229 0.1183
vn -0.9826 -0.1785 -0.0505
vn -0.9506 0.0367 0.3084
vn -0.9729 -0.0973 0.2098
vn -0.8641 0.0137 0.5032
vn -0.8845 -0.0483 0.4641
vn -0.7920 0.0409 0.6092
vn 0.0000 0.0000 1.0000
vn 0.0000 -0.2516 -0.9678
vn -0.0239 -0.9979 -0.0606
vn -0.0335 -0.9984 -0.0449
vn 0.9861 -0.0105 -0.1658
vn 0.9581 -0.0919 -0.2712
vn 0.9679 -0.0363 -0.2489
vn 0.9211 0.0013 -0.3892
vn 0.9155 -0.0163 -0.4020
vn 0.8000 0.0000 -0.6000
vn 0.8359 0.0174 -0.5486
vn 0.8551 -0.0107 -0.5184
vn 0.9926 -0.0573 -0.1067
vn 0.9955 -0.0864 0.0394
vn 0.9895 -0.0180 0.1436
vn 0.9771 -0.0989 0.1886
vn 0.9622 -0.0056 0.2723
vn 0.9062 -0.0602 0.4186
vn 0.9211 -0.0079 0.3892
vn 0.8340 0.0025 0.5517
vn 0.8360 0.0051 0.5486
vn 0.8331 -0.0006 0.5532
vn 0.8321 0.0000 0.5547
vn 0.0646 -0.9943 -0.0844
vn -0.0036 -1.0000 -0.0044
vn -0.0007 -1.0000 -0.0038
vn -0.0017 -1.0000 -0.0046
vn 0.0060 -1.0000 -0.0021
vn 0.0001 -1.0000 0.0030
vn 0.0000 -1.0000 0.0044
vn -0.0152 -0.9999 0.0003
vn -0.0012 -1.0000 0.0056
vn 0.0002 -1.0000 -0.0031
vn -0.0005 -1.0000 -0.0013
vn -0.0005 -1.0000 0.0013
vn 0.0055 -1.0000 -0.0019
vn -0.0018 -1.0000 0.0065
vn -0.0031 -1.0000 -0.0081
vn -0.0204 -0.9998 0.0065
vn -0.0040 -1.0000 -0.0047
vn -0.6074 0.0000 -0.7944
vn -0.6171 0.0146 -0.7868
vn -0.6074 0.0032 0.7944
vn -0.6074 0.0029 0.7944
vn -0.6098 0.0004 0.7925
vn -0.6097 0.0000 0.7926
vn 0.0215 -0.9773 -0.2108
vn 0.0379 -0.9844 -0.1718
vn 0.0624 -0.9785 -0.1966
vn 0.0716 -0.9860 -0.1509
vn 0.0699 -0.9862 -0.1499
vn 0.0735 -0.9856 -0.1520
vn 0.0319 -0.9838 0.1762
vn 0.0329 -0.9855 0.1663
vn 0.0313 -0.9858 0.1651
vn 0.0429 -0.9837 0.1745
vn 0.0226 -0.9850 0.1712
vn 0.0221 -0.9845 0.1740
vn 0.1033 -0.9763 0.1904
vn 0.1051 -0.9761 0.1902
vn 0.1007 -0.9786 0.1792
vn 0.0947 -0.9863 0.1353
vn 0.0954 -0.9790 0.1804
vn 0.6188 -0.2869 0.7313
vn 0.2066 0.0508 0.9771
vn 0.1987 0.0000 0.9801
vn 0.9763 0.0937 0.1953
vn 0.9765 -0.0206 0.2146
vn 0.7313 -0.2869 -0.6188
vn 0.9773 0.0516 -0.2055
vn 0.9757 0.0700 -0.2077
vn 0.1989 0.0237 -0.9797
vn 0.2047 -0.0159 -0.9787
vn -0.8167 0.2123 -0.5367
vn -0.3697 0.0961 -0.9242
vn -0.2008 -0.0242 -0.9793
vn -0.1982 -0.0203 -0.9799
vn -0.2068 -0.0174 -0.9782
vn -0.2024 -0.0117 -0.9792
vn -0.9799 0.0391 -0.1955
vn -0.9770 -0.0502 -0.2074
vn -0.9242 0.0961 0.3697
vn -0.9793 -0.0242 0.2008
vn -0.9792 -0.0398 0.1988
vn -0.1987 0.0000 0.9801
vn -0.2066 -0.0508 0.9771
vn 0.2025 -0.0017 0.9793
vn 0.9849 -0.0304 0.1702
vn -0.6591 0.0868 -0.7470
vn -0.7071 0.0000 0.7071
vn -0.1306 0.3780 -0.9165
vn 0.9701 0.0858 -0.2268
vn -0.1737 0.0422 0.9839
vn 0.2224 0.0837 0.9714
vn -0.0812 0.9833 0.1629
vn 0.5534 0.7458 0.3709
vn 0.7347 0.5285 -0.4252
vn 0.5160 0.8186 0.2523
vn 0.5230 0.8001 -0.2939
vn 0.8937 0.2232 -0.3892
vn 0.9085 0.2133 0.3593
vn 0.6819 0.0463 -0.7300
s 1
f 1//1 3//1 2//1
f 1//2 2//2 4//2
f 5//3 7//3 6//3
f 8//4 10//4 9//4
f 8//5 9//5 11//5
f 11//6 9//6 12//6
f 11//7 12//7 13//7
f 13//8 12//8 14//8
f 14//9 12//9 15//9
f 14//10 15//10 16//10
f 16//11 15//11 17//11
f 18//12 20//12 19//12
f 18//12 19//12 21//12
f 21//13 19//13 22//13
f 21//14 22//14 23//14
f 23//15 22//15 24//15
f 23//16 24//16 25//16
f 26//17 3//17 27//17
f 27//18 3//18 1//18
f 26//19 27//19 28//19
f 26//20 28//20 29//20
f 30//21 32//21 31//21
f 29//22 28//22 33//22
f 30//23 31//23 33//23
f 33//24 31//24 29//24
f 34//25 36//25 35//25
f 34//26 35//26 37//26
f 38//27 37//27 35//27
f 1//28 38//28 27//28
f 32//29 30//29 39//29
f 38//28 16//28 18//28
f 37//30 23//31 25//32
f 38//28 18//28 21//28
f 39//33 34//33 32//33
f 38//28 35//28 36//28
f 38//28 21//28 23//28
f 6//34 10//34 5//34
f 38//28 36//28 39//28
f 38//28 39//28 30//28
f 22//35 19//35 20//35
f 38//28 30//28 33//28
f 38//28 33//28 28//28
f 22//35 20//35 17//35
f 38//28 28//28 27//28
f 22//35 25//35 24//35
f 17//36 20//36 16//36
f 8//28 38//28 5//28
f 4//37 5//37 1//37
f 38//28 11//28 13//28
f 4//38 7//38 5//38
f 38//28 13//28 14//28
f 38//28 14//28 16//28
f 40//39 42//40 41//41
f 43//42 45//42 44//42
f 46//43 43//43 47//43
f 48//44 50//44 49//44
f 48//45 51//45 50//45
f 52//46 50//46 51//46
f 53//47 55//47 54//47
f 53//48 56//48 55//48
f 57//49 59//49 58//49
f 60//50 57//50 61//50
f 58//51 59//51 62//51
f 63//52 64//53 61//53
f 65//54 66//54 55//54
f 63//52 68//55 67//56
f 69//57 71//57 70//57
f 55//58 72//58 65//58
f 63//52 67//56 73//59
f 74//60 65//60 72//60
f 63//52 73//59 75//61
f 52//62 77//62 76//62
f 78//63 52//63 51//63
f 79//64 81//64 80//64
f 75//65 44//65 45//65
f 40//66 43//66 46//66
f 82//67 73//67 67//67
f 81//68 59//68 83//68
f 76//69 84//69 52//69
f 50//70 52//70 84//70
f 85//71 83//71 59//71
f 82//72 68//72 86//72
f 82//73 67//73 68//73
f 57//74 62//74 87//74
f 73//75 88//75 44//75
f 89//76 72//76 71//76
f 40//77 46//77 90//77
f 55//78 71//78 72//78
f 54//79 55//79 91//79
f 92//80 45//80 43//80
f 93//81 94//81 42//81
f 95//82 88//82 73//82
f 73//83 82//83 95//83
f 41//84 42//84 43//84
f 92//85 42//86 96//87
f 42//88 97//88 96//88
f 42//86 92//85 43//89
f 98//90 100//90 99//90
f 78//91 51//91 101//91
f 65//92 77//92 78//92
f 65//93 76//93 77//93
f 56//94 100//94 70//94
f 102//95 103//95 45//95
f 89//96 79//96 80//96
f 42//97 94//97 97//97
f 94//98 104//98 97//98
f 93//99 49//99 50//99
f 105//100 107//101 106//28
f 57//102 108//102 85//102
f 103//103 63//103 45//103
f 109//104 110//104 81//104
f 63//52 61//53 87//105
f 79//106 109//106 81//106
f 63//52 87//105 62//107
f 94//108 84//108 104//108
f 94//109 50//109 84//109
f 57//110 60//110 108//110
f 60//111 111//111 108//111
f 63//52 62//107 110//112
f 110//113 59//113 81//113
f 82//114 86//114 112//114
f 63//52 110//112 109//115
f 112//116 114//116 113//116
f 111//117 60//117 103//117
f 63//52 109//115 69//118
f 103//119 64//119 63//119
f 63//52 69//118 70//120
f 64//121 103//121 60//121
f 98//122 70//122 100//122
f 63//52 70//120 98//123
f 115//124 116//124 114//124
f 117//125 99//125 114//125
f 113//126 114//127 99//128
f 63//52 98//123 117//53
f 116//129 117//129 114//129
f 68//130 115//130 86//130
f 63//52 117//53 116//131
f 112//132 86//133 115//134
f 63//52 116//131 115//135
f 63//52 115//135 68//55
f 118//136 105//100 119//137
f 119//137 120//138 118//136
f 106//139 121//139 105//139
f 122//140 119//140 123//140
f 123//141 119//141 124//141
f 124//142 119//142 105//142
f 108//143 111//143 124//143
f 105//144 121//144 108//144
f 108//145 121//145 85//145
f 121//146 106//146 85//146
f 83//147 106//147 125//147
f 125//148 106//148 107//148
f 125//149 107//149 126//149
f 126//150 107//150 118//150
f 49//151 128//151 127//151
f 101//152 127//152 129//152
f 91//153 101//153 129//153
f 130//154 129//154 131//154
f 130//155 131//155 113//155
f 113//156 131//156 132//156
f 112//157 132//157 133//157
f 133//158 82//158 112//158
f 133//159 134//159 82//159
f 134//160 133//160 135//160
f 134//161 135//161 136//161
f 136//162 135//162 137//162
f 137//163 90//163 46//163
f 46//164 136//164 137//164
f 90//165 137//165 128//165
f 137//35 135//35 133//35
f 131//35 133//35 132//35
f 133//35 131//35 129//35
f 74//166 138//166 76//166
f 127//35 133//35 129//35
f 78//167 101//167 139//167
f 51//168 48//168 49//168
f 128//35 133//35 127//35
f 138//169 84//169 76//169
f 44//170 136//170 47//170
f 134//171 136//171 88//172
f 136//173 44//173 88//173
f 88//174 95//174 134//174
f 111//175 102//176 123//177
f 140//178 97//178 104//178
f 141//179 126//179 118//179
f 134//180 95//180 82//180
f 100//181 113//181 99//181
f 130//182 113//183 56//184
f 113//185 100//186 56//187
f 56//188 53//188 130//188
f 136//189 46//189 47//189
f 122//190 123//190 102//190
f 122//191 102//191 92//191
f 92//192 96//192 122//192
f 89//193 80//193 126//193
f 125//194 126//194 80//194
f 90//195 49//196 93//197
f 91//198 65//198 139//198
f 104//199 84//199 140//199
f 53//200 54//200 130//200
f 101//201 91//201 139//201
f 74//202 72//203 141//204
f 72//205 89//205 126//205
f 40//206 90//206 93//206
f 97//207 120//208 122//209
f 122//209 96//210 97//207
f 120//211 119//211 122//211
f 138//212 140//212 84//212
f 138//213 120//214 140//215
f 138//213 118//216 120//214
f 141//217 118//217 74//217
f 117//218 98//218 99//218
f 115//134 114//219 112//132
f 106//220 83//220 85//220
f 51//221 49//221 127//221
f 42//222 40//222 93//222
f 65//223 78//223 139//223
f 43//224 44//224 47//224
f 71//225 55//225 56//225
f 56//226 70//226 71//226
f 63//227 75//227 45//227
f 80//228 81//228 83//228
f 109//229 79//229 69//229
f 62//230 59//230 110//230
f 55//231 66//231 91//231
f 50//232 94//232 93//232
f 59//233 57//233 85//233
f 87//234 61//234 57//234
f 61//235 64//235 60//235
f 124//236 105//236 108//236
f 90//237 128//237 49//237
f 51//238 127//238 101//238
f 129//239 130//239 54//239
f 54//240 91//240 129//240
f 132//241 112//241 113//241
f 123//177 124//242 111//175
f 83//243 125//243 80//243
f 126//204 141//204 72//203
f 142//244 144//244 143//244
f 143//245 144//245 145//245
f 146//246 147//246 145//246
f 147//247 148//247 145//247
f 145//248 148//248 143//248
f 149//249 150//249 146//249
f 146//250 150//250 147//250
f 151//251 149//251 152//251
f 152//252 149//252 146//252
f 153//253 151//253 154//253
f 154//254 151//254 152//254
f 153//255 154//255 155//255
f 156//256 158//256 157//256
f 156//256 157//256 159//256
f 160//257 162//257 161//257
f 150//258 164//258 163//258
f 147//259 150//259 163//259
f 165//260 167//260 166//260
f 165//261 166//261 168//261
f 168//262 166//262 169//262
f 168//263 169//263 170//263
f 170//264 169//264 171//264
f 172//265 174//265 173//265
f 173//266 174//266 170//266
f 173//267 170//267 171//267
f 167//268 164//268 166//268
f 167//269 163//269 164//269
f 163//270 167//270 175//270
f 163//271 175//271 176//271
f 176//272 175//272 177//272
f 178//273 179//273 176//273
f 178//274 176//274 177//274
f 179//275 178//276 180//277
f 179//275 180//277 181//278
f 181//279 142//279 179//279
f 153//35 155//35 173//35
f 173//35 155//35 172//35
f 175//35 182//35 177//35
f 177//35 182//35 178//35
f 183//280 156//281 144//282
f 154//283 160//284 161//285
f 165//35 168//35 184//35
f 184//35 168//35 170//35
f 184//35 170//35 174//35
f 184//35 174//35 185//35
f 185//286 174//286 154//286
f 185//287 154//287 161//287
f 144//282 159//288 186//289
f 154//283 187//290 160//284
f 188//291 146//35 145//292
f 154//283 188//291 187//290
f 146//35 188//291 152//293
f 152//293 188//291 154//283
f 178//35 182//35 180//35
f 180//294 182//294 144//294
f 144//282 182//295 183//280
f 144//282 156//281 159//288
f 144//282 186//289 188//291
f 144//282 188//291 145//292
f 172//296 155//296 174//296
f 174//297 155//297 154//297
f 142//298 181//299 144//300
f 144//300 181//299 180//301
f 148//302 147//302 163//302
f 148//303 163//303 176//303
f 148//304 176//304 143//304
f 143//305 176//306 179//305
f 179//305 142//307 143//305
f 166//308 149//309 169//310
f 169//311 149//311 171//311
f 164//312 150//313 166//308
f 166//308 150//313 149//309
f 171//314 149//315 151//316
f 153//317 173//317 171//317
f 153//318 171//314 151//316
f 182//319 189//319 183//319
f 189//320 158//320 183//320
f 183//321 158//321 156//321
f 167//322 189//322 175//322
f 175//323 189//323 182//323
f 185//324 190//324 184//324
f 190//325 167//325 184//325
f 184//326 167//326 165//326
f 162//327 190//327 161//327
f 161//328 190//328 185//328
f 187//329 192//329 191//329
f 187//330 191//330 193//330
f 193//331 162//332 187//333
f 187//333 162//332 160//334
f 194//335 192//335 188//335
f 188//336 192//336 187//336
f 186//337 196//337 195//337
f 195//338 194//338 186//338
f 186//339 194//339 188//339
f 157//340 197//340 159//340
f 159//341 197//341 186//341
f 5//28 38//28 1//28
f 38//342 23//31 37//30
f 36//343 34//343 39//343
f 5//344 10//344 8//344
f 16//345 20//345 18//345
f 11//28 38//28 8//28
f 79//346 71//346 69//346
f 77//347 52//347 78//347
f 73//348 44//348 75//348
f 41//349 43//349 40//349
f 58//350 62//350 57//350
f 102//351 45//351 92//351
f 74//352 76//352 65//352
f 111//353 103//353 102//353
f 71//354 79//354 89//354
f 118//136 107//101 105//100
f 118//355 138//355 74//355
f 137//35 133//35 128//35
f 120//356 97//356 140//356
f 66//357 65//357 91//357
